<?xml version="1.0" encoding="UTF-8" standalone="no"?>
<!-- Created with Inkscape (http://www.inkscape.org/) -->

<svg
   xmlns:dc="http://purl.org/dc/elements/1.1/"
   xmlns:cc="http://creativecommons.org/ns#"
   xmlns:rdf="http://www.w3.org/1999/02/22-rdf-syntax-ns#"
   xmlns:svg="http://www.w3.org/2000/svg"
   xmlns="http://www.w3.org/2000/svg"
   xmlns:sodipodi="http://sodipodi.sourceforge.net/DTD/sodipodi-0.dtd"
   xmlns:inkscape="http://www.inkscape.org/namespaces/inkscape"
   width="100"
   height="100"
   id="svg2"
   version="1.1"
   inkscape:version="0.48.3.1 r9886"
   sodipodi:docname="groups_default_100x100.png">
  <defs
     id="defs4" />
  <sodipodi:namedview
     id="base"
     pagecolor="#ffffff"
     bordercolor="#666666"
     borderopacity="1.0"
     inkscape:pageopacity="0.0"
     inkscape:pageshadow="2"
     inkscape:zoom="2.8"
     inkscape:cx="75.003594"
     inkscape:cy="57.3395"
     inkscape:document-units="px"
     inkscape:current-layer="layer1"
     showgrid="false"
     inkscape:window-width="1366"
     inkscape:window-height="706"
     inkscape:window-x="-8"
     inkscape:window-y="-8"
     inkscape:window-maximized="1" />
  <metadata
     id="metadata7">
    <rdf:RDF>
      <cc:Work
         rdf:about="">
        <dc:format>image/svg+xml</dc:format>
        <dc:type
           rdf:resource="http://purl.org/dc/dcmitype/StillImage" />
        <dc:title></dc:title>
      </cc:Work>
    </rdf:RDF>
  </metadata>
  <g
     inkscape:label="Layer 1"
     inkscape:groupmode="layer"
     id="layer1"
     transform="translate(0,-952.3622)">
    <rect
       style="fill:#f9f9f9;fill-rule:evenodd;stroke:none"
       id="rect2985"
       width="131.57237"
       height="126.77415"
       x="-17.336994"
       y="939.85706" />
    <path
       sodipodi:type="arc"
       style="fill:#cccccc;stroke:none"
       id="path3755"
       sodipodi:cx="35.355339"
       sodipodi:cy="30.807102"
       sodipodi:rx="21.718279"
       sodipodi:ry="21.718279"
       d="m 57.073618,30.807102 a 21.718279,21.718279 0 1 1 -43.436558,0 21.718279,21.718279 0 1 1 43.436558,0 z"
       transform="matrix(0.71253671,0.21587628,-0.21587628,0.71253671,56.895135,947.0676)"
       inkscape:transform-center-x="-6.1195178"
       inkscape:transform-center-y="-1.1656148" />
    <path
       transform="matrix(0.56543235,0.17130827,-0.17130827,0.56543235,60.844012,952.77591)"
       d="m 57.073618,30.807102 a 21.718279,21.718279 0 1 1 -43.436558,0 21.718279,21.718279 0 1 1 43.436558,0 z"
       sodipodi:ry="21.718279"
       sodipodi:rx="21.718279"
       sodipodi:cy="30.807102"
       sodipodi:cx="35.355339"
       id="path3757"
       style="fill:#e6e6e6;stroke:none"
       sodipodi:type="arc"
       inkscape:transform-center-x="-6.2404815"
       inkscape:transform-center-y="-1.564881" />
    <path
       sodipodi:type="arc"
       style="fill:#cccccc;stroke:none"
       id="path3759"
       sodipodi:cx="-19.697975"
       sodipodi:cy="27.271568"
       sodipodi:rx="4.5456862"
       sodipodi:ry="4.5456862"
       d="m -15.152289,27.271568 a 4.5456862,4.5456862 0 1 1 -9.091372,0 4.5456862,4.5456862 0 1 1 9.091372,0 z"
       transform="matrix(1.3178099,0.39925509,-0.39925509,1.3178099,98.254177,944.87173)"
       inkscape:transform-center-x="7.9093937"
       inkscape:transform-center-y="-4.8708293" />
    <path
       transform="matrix(1.3178099,0.39925509,-0.39925509,1.3178099,115.94604,935.40737)"
       d="m -15.152289,27.271568 a 4.5456862,4.5456862 0 1 1 -9.091372,0 4.5456862,4.5456862 0 1 1 9.091372,0 z"
       sodipodi:ry="4.5456862"
       sodipodi:rx="4.5456862"
       sodipodi:cy="27.271568"
       sodipodi:cx="-19.697975"
       id="path3761"
       style="fill:#cccccc;stroke:none"
       sodipodi:type="arc"
       inkscape:transform-center-x="-9.7824693"
       inkscape:transform-center-y="-14.335189" />
    <path
       sodipodi:type="arc"
       style="fill:#cccccc;stroke:none"
       id="path3763"
       sodipodi:cx="-19.697975"
       sodipodi:cy="27.271568"
       sodipodi:rx="4.5456862"
       sodipodi:ry="4.5456862"
       d="m -15.152289,27.271568 a 4.5456862,4.5456862 0 1 1 -9.091372,0 4.5456862,4.5456862 0 1 1 9.091372,0 z"
       transform="matrix(1.3178099,0.39925509,-0.39925509,1.3178099,124.78725,954.43656)"
       inkscape:transform-center-x="-18.623679"
       inkscape:transform-center-y="4.6940007" />
    <path
       transform="matrix(1.3178099,0.39925509,-0.39925509,1.3178099,108.12384,960.50632)"
       d="m -15.152289,27.271568 a 4.5456862,4.5456862 0 1 1 -9.091372,0 4.5456862,4.5456862 0 1 1 9.091372,0 z"
       sodipodi:ry="4.5456862"
       sodipodi:rx="4.5456862"
       sodipodi:cy="27.271568"
       sodipodi:cx="-19.697975"
       id="path3765"
       style="fill:#cccccc;stroke:none"
       sodipodi:type="arc"
       inkscape:transform-center-x="-1.9602693"
       inkscape:transform-center-y="10.763761" />
  </g>
</svg>
