<?xml version="1.0" encoding="UTF-8" standalone="no"?>
<!-- Created with Inkscape (http://www.inkscape.org/) -->

<svg
   xmlns:dc="http://purl.org/dc/elements/1.1/"
   xmlns:cc="http://creativecommons.org/ns#"
   xmlns:rdf="http://www.w3.org/1999/02/22-rdf-syntax-ns#"
   xmlns:svg="http://www.w3.org/2000/svg"
   xmlns="http://www.w3.org/2000/svg"
   xmlns:sodipodi="http://sodipodi.sourceforge.net/DTD/sodipodi-0.dtd"
   xmlns:inkscape="http://www.inkscape.org/namespaces/inkscape"
   width="50"
   height="50"
   id="svg2"
   version="1.1"
   inkscape:version="0.48.3.1 r9886"
   sodipodi:docname="user_100x100.svg">
  <defs
     id="defs4" />
  <sodipodi:namedview
     id="base"
     pagecolor="#ffffff"
     bordercolor="#666666"
     borderopacity="1.0"
     inkscape:pageopacity="0.0"
     inkscape:pageshadow="2"
     inkscape:zoom="3.959798"
     inkscape:cx="76.556963"
     inkscape:cy="30.031737"
     inkscape:document-units="px"
     inkscape:current-layer="layer1"
     showgrid="false"
     inkscape:window-width="1366"
     inkscape:window-height="706"
     inkscape:window-x="-8"
     inkscape:window-y="-8"
     inkscape:window-maximized="1" />
  <metadata
     id="metadata7">
    <rdf:RDF>
      <cc:Work
         rdf:about="">
        <dc:format>image/svg+xml</dc:format>
        <dc:type
           rdf:resource="http://purl.org/dc/dcmitype/StillImage" />
        <dc:title></dc:title>
      </cc:Work>
    </rdf:RDF>
  </metadata>
  <g
     inkscape:label="Layer 1"
     inkscape:groupmode="layer"
     id="layer1"
     transform="translate(0,-1002.3622)">
    <rect
       style="fill:#f9f9f9;fill-rule:evenodd;stroke:none"
       id="rect2985"
       width="131.57237"
       height="126.77415"
       x="122.98607"
       y="922.55756" />
    <path
       style="fill:#999999;stroke:none"
       d="m 46.842004,959.93562 c -14.017033,0 -25.375,11.35797 -25.375,25.375 0,9.79592 5.560627,18.26908 13.6875,22.49998 -11.054818,7.7524 -18.75,24.8488 -18.75,44.6875 0,27.1275 14.380683,49.0938 32.09375,49.0938 17.713067,0 32.0625,-21.9663 32.0625,-49.0938 0,-20.7344 -8.386754,-38.4805 -20.25,-45.6875 7.145488,-4.4901 11.90625,-12.43786 11.90625,-21.49998 0,-14.01703 -11.357967,-25.375 -25.375,-25.375 z"
       id="path3755"
       inkscape:connector-curvature="0" />
    <path
       inkscape:connector-curvature="0"
       id="path3760"
       d="m 50.125,961.70339 c -14.017033,0 -25.375,11.35797 -25.375,25.375 0,9.79592 5.560627,18.26911 13.6875,22.50001 -11.054818,7.7524 -18.75,24.8488 -18.75,44.6875 0,27.1275 14.380683,49.0938 32.09375,49.0938 17.713067,0 32.0625,-21.9663 32.0625,-49.0938 0,-20.7344 -8.386754,-38.4805 -20.25,-45.6875 C 70.739238,1004.0883 75.5,996.14051 75.5,987.07839 c 0,-14.01703 -11.357967,-25.375 -25.375,-25.375 z"
       style="fill:#b3b3b3;stroke:none" />
  </g>
</svg>
