<?xml version="1.0" encoding="UTF-8" standalone="no"?>
<!-- Created with Inkscape (http://www.inkscape.org/) -->

<svg
   xmlns:osb="http://www.openswatchbook.org/uri/2009/osb"
   xmlns:dc="http://purl.org/dc/elements/1.1/"
   xmlns:cc="http://creativecommons.org/ns#"
   xmlns:rdf="http://www.w3.org/1999/02/22-rdf-syntax-ns#"
   xmlns:svg="http://www.w3.org/2000/svg"
   xmlns="http://www.w3.org/2000/svg"
   xmlns:sodipodi="http://sodipodi.sourceforge.net/DTD/sodipodi-0.dtd"
   xmlns:inkscape="http://www.inkscape.org/namespaces/inkscape"
   width="960"
   height="250"
   id="svg2"
   version="1.1"
   inkscape:version="0.48.3.1 r9886"
   sodipodi:docname="getstarted.svg"
   inkscape:export-filename="C:\xampp\htdocs\testy\public_files\images\icons\getstarted.png"
   inkscape:export-xdpi="90"
   inkscape:export-ydpi="90">
  <defs
     id="defs4">
    <linearGradient
       id="linearGradient5251"
       osb:paint="solid">
      <stop
         style="stop-color:#000000;stop-opacity:1;"
         offset="0"
         id="stop5253" />
    </linearGradient>
    <inkscape:perspective
       sodipodi:type="inkscape:persp3d"
       inkscape:vp_x="-157.11895 : 96.70719 : 1"
       inkscape:vp_y="0 : 791.24264 : 0"
       inkscape:vp_z="1836.5212 : 96.70719 : 1"
       inkscape:persp3d-origin="839.7011 : 63.738747 : 1"
       id="perspective3002" />
    <filter
       inkscape:collect="always"
       id="filter3971"
       x="-0.10202177"
       width="1.2040435"
       y="-0.067228575"
       height="1.1344571">
      <feGaussianBlur
         inkscape:collect="always"
         stdDeviation="1.0663979"
         id="feGaussianBlur3973" />
    </filter>
    <filter
       inkscape:collect="always"
       id="filter3975">
      <feGaussianBlur
         inkscape:collect="always"
         stdDeviation="1.0663979"
         id="feGaussianBlur3977" />
    </filter>
    <filter
       inkscape:collect="always"
       id="filter3979">
      <feGaussianBlur
         inkscape:collect="always"
         stdDeviation="1.0663979"
         id="feGaussianBlur3981" />
    </filter>
    <filter
       inkscape:collect="always"
       id="filter3983">
      <feGaussianBlur
         inkscape:collect="always"
         stdDeviation="1.0663979"
         id="feGaussianBlur3985" />
    </filter>
    <filter
       inkscape:collect="always"
       id="filter3987">
      <feGaussianBlur
         inkscape:collect="always"
         stdDeviation="1.0663979"
         id="feGaussianBlur3989" />
    </filter>
    <filter
       inkscape:collect="always"
       id="filter3991"
       x="-0.23897183"
       width="1.4779437"
       y="-0.078235888"
       height="1.1564718">
      <feGaussianBlur
         inkscape:collect="always"
         stdDeviation="1.0663979"
         id="feGaussianBlur3993" />
    </filter>
    <filter
       inkscape:collect="always"
       id="filter3995">
      <feGaussianBlur
         inkscape:collect="always"
         stdDeviation="1.0663979"
         id="feGaussianBlur3997" />
    </filter>
    <filter
       inkscape:collect="always"
       id="filter3999"
       x="-0.17049033"
       width="1.3409807"
       y="-0.0502194"
       height="1.1004388">
      <feGaussianBlur
         inkscape:collect="always"
         stdDeviation="1.0663979"
         id="feGaussianBlur4001" />
    </filter>
    <filter
       inkscape:collect="always"
       id="filter4003">
      <feGaussianBlur
         inkscape:collect="always"
         stdDeviation="1.0663979"
         id="feGaussianBlur4005" />
    </filter>
    <filter
       inkscape:collect="always"
       id="filter4007"
       x="-0.19637119"
       width="1.3927424"
       y="-0.047177979"
       height="1.094356">
      <feGaussianBlur
         inkscape:collect="always"
         stdDeviation="1.0663979"
         id="feGaussianBlur4009" />
    </filter>
    <filter
       inkscape:collect="always"
       id="filter4011">
      <feGaussianBlur
         inkscape:collect="always"
         stdDeviation="1.0663979"
         id="feGaussianBlur4013" />
    </filter>
  </defs>
  <sodipodi:namedview
     id="base"
     pagecolor="#ffffff"
     bordercolor="#666666"
     borderopacity="1.0"
     inkscape:pageopacity="0"
     inkscape:pageshadow="2"
     inkscape:zoom="0.70000001"
     inkscape:cx="233.79411"
     inkscape:cy="88.015044"
     inkscape:document-units="px"
     inkscape:current-layer="layer1"
     showgrid="false"
     inkscape:window-width="1366"
     inkscape:window-height="706"
     inkscape:window-x="-8"
     inkscape:window-y="-8"
     inkscape:window-maximized="1"
     borderlayer="false" />
  <metadata
     id="metadata7">
    <rdf:RDF>
      <cc:Work
         rdf:about="">
        <dc:format>image/svg+xml</dc:format>
        <dc:type
           rdf:resource="http://purl.org/dc/dcmitype/StillImage" />
        <dc:title />
      </cc:Work>
    </rdf:RDF>
  </metadata>
  <g
     inkscape:label="Layer 1"
     inkscape:groupmode="layer"
     id="layer1"
     transform="translate(0,-802.36218)">
    <path
       inkscape:connector-curvature="0"
       d="m 250.64059,899.53615 c -0.10229,0.52491 -0.1622,1.05988 -0.3069,1.57472 -0.9896,3.52122 -2.62179,6.87142 -3.99994,10.24613 -2.82228,6.91092 -0.57909,1.7203 -3.64062,8.61161 -2.1103,4.23858 -3.8954,8.63687 -6.0598,12.84833 0,0 -11.0791,4.78866 -11.0791,4.78866 l 0,0 c 1.50137,-1.54658 2.26118,-3.60608 3.19883,-5.51657 5.05083,-10.29109 -1.93476,4.04382 3.63443,-7.40479 2.58981,-5.7376 1.31884,-2.73158 3.60509,-8.54991 1.42895,-3.63656 3.06733,-7.25151 3.85333,-11.09802 0,0 10.79468,-5.50016 10.79468,-5.50016 z"
       id="path3137"
       style="fill:#999999;filter:url(#filter3971)" />
    <path
       inkscape:connector-curvature="0"
       d="m 246.19819,880.9109 c 6.90089,1.10505 13.35009,4.07391 19.6361,7.01002 5.03955,2.51487 10.18682,5.14138 13.63549,9.72562 0.639,1.09562 1.50796,3.18813 0.003,4.18201 -9.40153,6.2075 -9.63359,6.85344 -17.788,8.01999 -6.39628,0.93468 -12.84754,1.36148 -19.30036,1.64947 -2.84861,0.10387 -1.48853,0.0108 -4.08164,0.25754 0,0 9.56659,-7.0582 9.56659,-7.0582 l 0,0 c 2.54865,-0.13096 1.21864,-0.0805 3.99037,-0.14169 6.39235,-0.22606 12.7864,-0.63949 19.10398,-1.68908 1.07481,-0.2096 2.16363,-0.35699 3.22441,-0.62881 0.86916,-0.22271 3.2737,-1.38677 2.55345,-0.85171 -2.60623,1.9361 -5.51832,3.42237 -8.28994,5.11321 -0.3658,0.22316 0.81037,-0.37022 1.07177,-0.70975 0.54718,-0.71067 -0.0652,-1.4666 -0.33697,-2.06437 -3.12211,-4.514 -8.07275,-7.07633 -12.85695,-9.51195 -6.28486,-2.91331 -12.86163,-5.8929 -19.88631,-6.21477 0,0 9.75515,-7.08753 9.75515,-7.08753 z"
       id="path3139"
       style="fill:#999999;filter:url(#filter3975)" />
    <path
       inkscape:connector-curvature="0"
       d="m 292.01197,899.36308 c -1.02762,5.04772 -2.13106,10.36901 -1.55272,15.55256 0.11083,0.99328 0.40811,1.95679 0.61216,2.93519 0.3886,0.81203 0.6489,1.69905 1.16581,2.43607 3.45948,4.93271 11.41209,4.95013 16.65813,5.21649 6.84567,-0.23773 13.65031,-1.62752 19.82131,-4.6757 1.13048,-0.55841 4.41477,-2.43062 3.27162,-1.89862 -2.53353,1.17905 -4.96696,2.56223 -7.45045,3.84335 2.82541,-2.63781 4.64001,-5.77096 3.08452,-9.67853 -0.25584,-0.64272 -0.68553,-1.20175 -1.02829,-1.80263 -0.5362,-0.47555 -1.01127,-1.03061 -1.6086,-1.42666 -4.94389,-3.27801 -13.41913,-2.50827 -18.95637,-1.99038 -4.88212,0.46887 -9.58994,1.84341 -14.29939,3.1278 0,0 9.02136,-6.91751 9.02136,-6.91751 l 0,0 c 4.72168,-1.20814 9.44742,-2.47307 14.32249,-2.90346 5.89326,-0.48622 14.81942,-1.23189 19.94362,2.48044 0.67646,0.49009 1.20869,1.15337 1.81304,1.73005 0.3894,0.68929 0.86255,1.33756 1.16816,2.06787 1.84101,4.39926 0.47836,7.73884 -2.65592,10.97956 -0.50985,0.31963 -11.26806,7.50113 -15.5676,9.42861 -6.28817,2.81897 -13.12998,4.04449 -19.99067,4.18423 -6.0403,-0.31418 -13.886,-0.29033 -17.72353,-6.00235 -0.5537,-0.82418 -0.83549,-1.8015 -1.25323,-2.70225 -0.21546,-1.04895 -0.52625,-2.08277 -0.6464,-3.14687 -0.58829,-5.21029 0.47591,-10.48647 1.01699,-15.64734 0,0 10.83396,-5.18992 10.83396,-5.18992 z"
       id="path3141"
       style="fill:#999999;filter:url(#filter3979)" />
    <path
       inkscape:connector-curvature="0"
       d="m 372.66881,914.95624 c -4.59509,-0.002 -9.22942,-0.43906 -13.81422,0.0442 -1.27942,0.13485 -2.54143,0.40191 -3.81214,0.60287 1.97741,-2.03731 -9.17297,3.93225 -6.84952,3.02174 2.39957,-0.94035 4.39359,-3.16143 6.96312,-3.36075 1.2743,-0.0988 -1.67609,1.93937 -2.38132,3.00534 -1.64387,2.48473 -2.03753,3.93187 -3.09209,6.66335 -0.7533,2.71113 -2.12833,6.96746 -0.42513,9.66057 0.67326,1.06458 1.52583,1.27377 2.59884,1.7887 0.67613,0.16212 1.33863,0.39889 2.0284,0.48636 3.02778,0.38396 5.96109,-0.40534 8.73156,-1.58458 1.1834,-0.50373 4.58812,-2.32617 3.45473,-1.71824 -2.12748,1.14115 -4.29182,2.21217 -6.43773,3.31826 1.08243,-0.97729 2.25471,-1.86344 3.24728,-2.93188 6.6597,-7.16873 8.02717,-16.25336 9.37837,-25.54513 1.15349,-12.82129 -0.43032,-25.64611 -2.97419,-38.20319 -0.90652,-3.51092 -1.36398,-7.4186 -3.63652,-10.36711 0,0 10.31469,-6.09113 10.31469,-6.09113 l 0,0 c 0.28031,0.41615 0.60813,0.80398 0.84092,1.24847 1.58052,3.01787 1.8198,6.60389 2.52606,9.86472 2.00932,12.78958 3.54412,25.74139 2.75004,38.70764 -1.14338,9.35442 -2.28823,18.60685 -8.65873,26.0582 -0.95044,1.11169 -2.09222,2.04438 -3.13833,3.06656 -6.09901,3.71272 -15.13598,10.90882 -23.416,11.10646 -2.2977,0.0548 -2.88046,-0.28685 -4.96379,-0.91509 -1.37805,-0.82527 -2.19641,-1.07429 -3.04124,-2.53004 -1.77411,-3.05703 -0.49502,-7.46808 0.36111,-10.55355 0.91275,-2.51645 3.12642,-8.59017 5.25414,-10.21747 3.99799,-3.05769 8.40177,-5.54784 12.68842,-8.18568 1.06027,-0.65244 2.17343,-1.23492 3.33759,-1.67606 1.20588,-0.45696 2.49066,-0.66961 3.736,-1.00441 1.29517,-0.17417 2.58421,-0.40248 3.88553,-0.52251 4.7621,-0.43922 9.5597,-0.0975 14.3301,-0.34652 0,0 -9.78595,7.10993 -9.78595,7.10993 z"
       id="path3143"
       style="fill:#999999;filter:url(#filter3983)" />
    <path
       inkscape:connector-curvature="0"
       d="m 401.98198,900.49724 c 5.88169,0.28632 11.77949,0.0602 17.66162,0.26011 1.86345,0.0633 3.72247,0.22164 5.58369,0.33247 4.7249,0.6966 9.65744,0.51132 14.31202,1.71757 1.88187,0.48769 4.07305,1.28426 5.33556,2.9189 0.44466,0.57573 0.54367,1.34952 0.81549,2.02427 -0.23844,0.81966 -0.24424,1.74712 -0.71536,2.45896 -1.42978,2.16037 -4.89571,4.33049 -6.94514,5.49062 -4.99266,2.82621 -9.98843,5.65996 -15.1352,8.19472 -1.21846,0.60008 -12.79062,4.76072 -13.80088,5.12758 -6.51248,2.29734 -13.0419,4.54007 -19.52973,6.90627 -1.51273,0.55171 -3.05651,1.02547 -4.53646,1.65989 -1.08049,0.46319 -4.1669,2.17911 -3.12939,1.62631 2.82341,-1.50433 5.65814,-2.98733 8.48722,-4.481 0.007,0.25744 -0.16674,0.59712 0.022,0.77233 2.0024,1.85858 10.69138,3.36116 12.72885,3.69219 6.64276,1.07923 10.81049,1.31974 17.6114,1.92847 12.95569,0.81957 25.95683,1.65203 38.91735,0.57163 3.17297,-0.51626 1.76092,-0.14361 4.26929,-0.98384 0,0 -9.4492,7.25469 -9.4492,7.25469 l 0,0 c -2.46056,0.50531 -1.08688,0.28198 -4.13382,0.5859 -12.70614,0.53055 -25.39285,-0.60844 -38.06742,-1.38702 -6.93765,-0.54784 -11.27568,-0.78005 -18.08139,-1.72468 -3.06153,-0.42493 -11.99123,-1.41454 -14.38649,-4.32966 -0.41174,-0.50111 -0.26764,-1.26924 -0.40145,-1.90386 3.8452,-2.4072 7.62958,-4.91443 11.53562,-7.22159 1.9395,-1.14558 5.41381,-2.20719 7.36483,-2.88713 6.41559,-2.23585 12.85689,-4.39653 19.24879,-6.70015 2.41435,-0.89576 4.841,-1.75903 7.24306,-2.68726 2.25239,-0.8704 4.30515,-2.77584 6.71891,-2.70811 1.62917,0.0457 -4.30479,1.1792 -4.01952,2.78384 0.27855,1.56678 2.76133,-1.58968 4.07117,-2.49341 2.75039,-1.89764 2.29431,-1.56813 3.70833,-3.80609 -0.1318,-0.50895 -0.0947,-1.09559 -0.39539,-1.52688 -1.77421,-2.54501 -5.98463,-2.8998 -8.67798,-3.29755 -3.21724,-0.47512 -6.82431,-0.76435 -10.04588,-1.06511 -7.98791,-0.36215 -15.97842,-0.21392 -23.97048,0.006 0,0 9.78596,-7.10992 9.78596,-7.10992 z"
       id="path3145"
       style="fill:#999999;filter:url(#filter3987)" />
    <path
       inkscape:connector-curvature="0"
       d="m 473.52015,903.3124 c -0.3735,8.00889 -0.34267,16.03024 -0.25369,24.04518 0.0188,1.13733 0.0377,2.27467 0.0567,3.412 0,0 -10.31574,5.25613 -10.31574,5.25613 l 0,0 c 0.0188,-1.15657 0.0377,-2.31313 0.0567,-3.46971 0.0871,-7.92865 0.12739,-15.86437 -0.2537,-23.78667 0,0 10.70986,-5.45693 10.70986,-5.45693 z"
       id="path3147"
       style="fill:#999999;filter:url(#filter3991)" />
    <path
       inkscape:connector-curvature="0"
       d="m 510.67495,915.20099 c 4.57511,0.31862 8.92628,-1.14315 13.11181,-2.81183 0.74859,-0.39133 2.98035,-1.59101 2.24575,-1.17401 -15.55282,8.82855 -7.95368,5.30403 -5.5915,2.01851 0.75786,-1.0541 0.87057,-1.54245 1.33962,-2.72246 -0.0155,-0.41766 0.0744,-0.85281 -0.0462,-1.25296 -1.07895,-3.57945 -7.85225,-5.0189 -10.88769,-5.83819 -2.91288,-0.45348 -3.7296,-0.87479 -6.6734,-0.15173 -1.10281,0.27087 -4.11778,1.86975 -3.17349,1.23897 2.12725,-1.42099 4.23074,-3.24737 6.75951,-3.63438 1.4266,-0.21834 -2.14575,1.94718 -3.05555,3.06751 -1.04096,1.28185 -1.84701,2.73779 -2.77051,4.10669 -3.32673,6.66185 -7.21612,15.98019 -4.9647,23.55061 0.4043,1.35948 1.20856,2.56631 1.81284,3.84946 1.13004,1.11024 2.10239,2.40804 3.39014,3.33072 3.38814,2.42768 7.72434,3.82176 11.68371,4.81858 4.50213,1.13349 11.5505,2.19449 16.13198,2.58341 2.67502,0.22708 5.36441,0.22847 8.04663,0.34271 6.00969,-0.0803 12.28362,-0.25197 17.90398,-2.69792 1.19681,-0.52084 2.24606,-1.33034 3.36909,-1.99551 0,0 -8.95363,7.21572 -8.95363,7.21572 l 0,0 c -1.12496,0.56318 -2.19367,1.25657 -3.37489,1.68952 -5.61857,2.05939 -11.72947,2.0437 -17.61467,2.02239 -2.67873,-0.15005 -5.3646,-0.20374 -8.03617,-0.45015 -4.55848,-0.42044 -11.96654,-1.49692 -16.4486,-2.59561 -4.24893,-1.04154 -8.70356,-2.43184 -12.32137,-5.03031 -1.39898,-1.00479 -2.45623,-2.41534 -3.68433,-3.623 -0.65135,-1.38393 -1.51017,-2.68807 -1.95403,-4.15181 -2.4455,-8.06472 1.46032,-17.09047 4.68653,-24.31792 1.10973,-1.82478 3.45216,-6.19548 5.41867,-7.54537 5.36717,-3.6842 12.62723,-9.28238 19.98778,-8.79202 1.15024,0.0766 2.26989,0.40411 3.40484,0.60616 3.84708,1.10622 10.32383,2.57928 11.9111,6.86021 0.2036,0.54912 0.18302,1.1569 0.27453,1.73535 -0.44009,1.4014 -0.47613,1.78558 -1.23401,3.08001 -0.61709,1.05394 -1.4806,2.26274 -2.53906,2.9285 -9.81087,6.17081 -8.30178,5.37514 -14.27491,8.16491 -4.4018,1.61086 -8.91538,2.83259 -13.65034,2.67396 0,0 9.77056,-7.09872 9.77056,-7.09872 z"
       id="path3149"
       style="fill:#999999;filter:url(#filter3995)" />
    <path
       inkscape:connector-curvature="0"
       d="m 565.77491,873.30352 c -0.18828,5.78321 -0.4777,11.58595 -0.26389,17.37341 0.18229,4.93476 0.47357,6.7554 1.01426,11.64141 0.57039,5.5909 2.03209,11.01398 3.58545,16.39366 0,0 -10.24035,5.55499 -10.24035,5.55499 l 0,0 c -1.32885,-5.5432 -2.62472,-11.1093 -3.19182,-16.79411 -0.45931,-4.1561 -0.88809,-7.52106 -1.12031,-11.7024 -0.31487,-5.6695 -0.0913,-11.35946 -0.45925,-17.02731 0,0 10.67591,-5.43965 10.67591,-5.43965 z"
       id="path3151"
       style="fill:#999999;filter:url(#filter3999)" />
    <path
       inkscape:connector-curvature="0"
       d="m 642.77154,901.06345 c -5.7966,-0.36777 -11.57785,0.0652 -17.22093,1.42431 -0.72819,0.26229 -1.48302,0.45998 -2.1846,0.78687 -0.57427,0.26758 -2.18457,1.28266 -1.62388,0.98766 3.00142,-1.57916 5.7995,-3.58272 8.94872,-4.84154 0.5857,-0.23412 -0.74816,1.04088 -0.94206,1.6411 -0.83159,2.57424 0.0763,2.5697 1.67414,4.96197 6.04672,6.55276 14.22384,10.33307 22.37467,13.56716 3.61506,1.32205 6.64462,3.24262 6.79334,7.53003 0.025,0.72157 -0.17252,1.43367 -0.25879,2.15051 -0.42236,0.76105 -0.71759,1.60813 -1.26708,2.28314 -0.66415,0.81585 -1.4306,1.58143 -2.32705,2.13196 -4.31686,2.65109 -8.71215,5.19269 -13.25397,7.4367 -1.31685,0.65063 -2.80592,0.88049 -4.23827,1.20581 -3.59487,0.81648 -6.71794,1.10987 -10.37711,1.56582 -7.42694,0.64325 -14.89842,1.39573 -22.36303,1.16272 -0.49904,-0.0405 -0.99809,-0.081 -1.49714,-0.12143 0,0 9.752,-6.94313 9.752,-6.94313 l 0,0 c 0.44479,0.0505 0.88958,0.10092 1.33436,0.15134 7.25318,0.31012 14.53043,-0.25871 21.74553,-0.95016 3.93836,-0.55302 6.5736,-0.79485 10.40871,-1.83117 1.43803,-0.38858 5.20708,-2.55924 4.23312,-1.43214 -1.6865,1.95169 -4.30376,2.85287 -6.55257,4.1163 -0.85462,0.48015 1.64804,-1.08176 2.35677,-1.759 0.55103,-0.52655 0.92441,-1.21204 1.38662,-1.81806 0.1449,-0.5936 0.40353,-1.17055 0.43474,-1.78076 0.18629,-3.64321 -3.09062,-5.47447 -5.98124,-6.64231 -8.15684,-3.60604 -16.2735,-7.75885 -22.59814,-14.18221 -0.86417,-1.1463 -2.01844,-2.12313 -2.5925,-3.43889 -0.25506,-0.5846 0.0305,-3.92696 0.73018,-4.46064 4.79041,-3.65415 9.51619,-6.97576 15.20547,-8.56024 5.82571,-1.13666 11.72701,-1.4249 17.65514,-1.42925 0,0 -9.75515,7.08753 -9.75515,7.08753 z"
       id="path3153"
       style="fill:#999999;filter:url(#filter4003)" />
    <path
       inkscape:connector-curvature="0"
       d="m 672.80418,893.8202 c -0.39392,8.24597 -0.40367,16.50603 -0.43121,24.75972 0.13195,7.3989 -0.37672,15.06405 1.94264,22.20063 0.50129,0.87959 0.15612,0.73238 0.72714,0.85943 0,0 -10.31806,6.42915 -10.31806,6.42915 l 0,0 c -0.67171,-0.84453 -0.3512,-0.33281 -0.85483,-1.59699 -1.83805,-7.45796 -1.36604,-15.21427 -1.42914,-22.83149 -0.0271,-8.1071 -0.0304,-16.22132 -0.43122,-24.32028 0,0 10.79468,-5.50017 10.79468,-5.50017 z"
       id="path3155"
       style="fill:#999999;filter:url(#filter4007)" />
    <path
       inkscape:connector-curvature="0"
       d="m 695.03847,906.20759 c 3.06677,0.0821 6.13487,0.0515 9.20231,0.057 1.48079,0.0582 3.04097,-0.0825 4.4161,-0.6959 0.41369,-0.18453 1.55764,-0.92499 1.16046,-0.70716 -9.48867,5.20417 -11.5832,7.82658 -8.45122,4.22232 0.99078,-1.80826 1.99077,-4.38717 1.00993,-6.41901 -0.22516,-0.46642 -0.60781,-0.83878 -0.91171,-1.25817 -0.54652,-0.34972 -1.04652,-0.78588 -1.63953,-1.04918 -4.99767,-2.21907 -10.51563,-1.56054 -15.50291,0.31026 -1.64046,0.61537 -3.17623,1.48008 -4.76434,2.22013 1.70458,-0.8402 3.62459,-3.70129 5.11372,-2.52061 1.36096,1.07905 -2.63474,2.27549 -3.81003,3.55425 -2.95532,3.21545 -5.69761,7.36577 -6.0984,11.84474 -0.12018,1.343 0.17466,2.69107 0.262,4.03661 0.5355,1.35197 0.87766,2.79758 1.60651,4.05589 1.96404,3.3908 4.4967,5.53017 7.70326,7.75475 4.36619,3.02908 8.59213,5.10868 13.54435,7.07239 2.68055,1.06292 5.44981,1.88686 8.17472,2.8303 11.54023,3.06182 23.42634,5.76026 35.43569,5.8204 1.30223,0.006 2.60258,-0.10009 3.90388,-0.1502 0.94954,-0.17767 1.92877,-0.23798 2.84865,-0.533 0.69025,-0.22136 2.5699,-1.34261 1.93112,-0.99994 -9.38044,5.03225 -10.22774,8.00746 -8.65534,3.78147 0,0 10.77438,-5.23532 10.77438,-5.23532 l 0,0 c -0.0454,0.56114 0.30954,1.33977 -0.13638,1.68341 -3.51674,2.71014 -7.43654,4.85892 -11.26676,7.10432 -0.60876,0.35688 -1.31436,0.53636 -2.00596,0.67658 -0.91466,0.18543 -1.85619,0.1964 -2.78428,0.2946 -13.16831,-0.16179 -26.12733,-3.06431 -38.77996,-6.52861 -2.7708,-0.95023 -5.58331,-1.78658 -8.3124,-2.85069 -4.89185,-1.90739 -9.6557,-4.15689 -14.02867,-7.08712 -3.42679,-2.29621 -6.12498,-4.53922 -8.26402,-8.08442 -0.81041,-1.34315 -1.21982,-2.89055 -1.82972,-4.33582 -0.13535,-1.45091 -0.49228,-2.89808 -0.40607,-4.35273 0.27959,-4.71771 3.00297,-9.05536 6.0071,-12.52146 1.15961,-1.33794 2.30266,-2.74704 3.76173,-3.75 4.52652,-3.11155 9.4,-5.68545 14.10002,-8.52817 1.6337,-0.70033 3.21757,-1.53083 4.90113,-2.101 5.26712,-1.78379 11.38753,-2.36116 16.54357,0.1679 0.7058,0.3462 1.28238,0.90969 1.92357,1.36453 0.38041,0.53182 0.84434,1.01288 1.14124,1.59544 1.17117,2.29801 0.4152,5.11927 -0.48879,7.35562 -2.84282,4.95714 -0.52468,1.3612 -11.91112,8.03804 -1.73187,1.01554 -3.94163,0.90958 -5.86012,0.93178 -3.1197,0.005 -6.24,-0.0238 -9.35908,0.0569 0,0 9.80137,-7.12112 9.80137,-7.12112 z"
       id="path3157"
       style="fill:#999999;filter:url(#filter4011)" />
    <path
       style="fill:#666666"
       id="path3069"
       d="m 149.95764,1126.7561 c 7.05663,14.3839 12.55425,29.4968 17.33691,44.7696 4.39699,17.2558 7.4071,34.8073 9.39682,52.4908 0,0 -17.85474,9.3142 -17.85474,9.3142 l 0,0 c -1.41463,-17.6799 -3.99784,-35.269 -8.7012,-52.4012 -4.61084,-14.9879 -9.83289,-30.1774 -18.38426,-43.426 0,0 18.20647,-10.7474 18.20647,-10.7474 z"
       inkscape:connector-curvature="0" />
    <path
       style="fill:#666666"
       id="path3071"
       d="m 152.78442,1107.5714 c 14.36671,0.4511 28.74097,0.4733 43.11313,0.5615 17.04372,0.396 35.75902,-0.7312 52.16359,4.7568 2.63301,0.8808 5.12863,2.1287 7.69294,3.1931 8.12869,4.0077 16.45462,8.8442 20.69662,17.2411 0.55543,1.0995 0.91525,2.2873 1.37287,3.431 0.62261,3.4569 0.69764,7.7036 -2.79871,9.898 -19.0919,11.983 -18.19386,12.3417 -35.00837,14.4653 -15.67869,1.3462 -31.43772,1.7957 -47.15193,0.939 -5.68759,-0.3952 -11.37095,-0.8469 -17.05641,-1.271 0,0 16.65803,-11.8918 16.65803,-11.8918 l 0,0 c 5.56244,0.5163 11.12278,1.0615 16.69542,1.4594 15.62152,0.8768 31.31994,0.4772 46.87691,-1.2363 2.39571,-0.3991 4.81612,-0.671 7.18713,-1.1973 1.99355,-0.4425 7.40201,-3.0706 5.88439,-1.7043 -3.87451,3.4883 -8.7741,5.6361 -13.23973,8.3265 -0.98926,0.596 2.06008,-1.1529 2.80196,-2.038 1.58614,-1.8925 1.10616,-3.4506 1.0288,-5.6625 -0.38557,-1.0524 -0.68269,-2.1416 -1.1567,-3.1572 -3.76254,-8.062 -11.67222,-12.7035 -19.28057,-16.5805 -2.4747,-1.0156 -4.88198,-2.2141 -7.42409,-3.0467 -16.42801,-5.3804 -34.50059,-4.3604 -51.517,-4.6089 -14.88736,0.09 -29.77637,0.1226 -44.65873,0.5615 0,0 17.12045,-12.4387 17.12045,-12.4387 z"
       inkscape:connector-curvature="0" />
    <path
       style="fill:#666666"
       id="path3073"
       d="m 307.5615,1147.6665 c -4.53672,4.0511 -7.73473,9.7551 -9.16511,15.6649 -0.29385,1.2141 -0.3703,2.4707 -0.55545,3.706 0.12526,1.8205 -0.15286,3.6984 1.33301,5.1271 3.25741,3.1321 14.72286,0.7692 18.53375,0.1873 6.79418,-1.3583 13.23767,-3.9 19.34384,-7.1367 1.80973,-0.9593 7.14924,-3.9936 5.30951,-3.0931 -12.79467,6.2621 -16.76682,10.2925 -8.4491,3.0298 4.81296,-4.8006 8.89178,-10.4259 11.42377,-16.7725 1.47613,-3.7 1.68589,-5.2962 2.57071,-9.1562 0.69696,-4.1472 1.24366,-8.3485 1.34536,-12.5591 0.0252,-1.0448 0.20933,-3.866 -0.80063,-4.8929 -0.59594,-0.6059 -1.5282,-0.7441 -2.29231,-1.1162 -1.34021,-0.1873 -2.66769,-0.5331 -4.02063,-0.562 -9.34867,-0.1999 -18.71442,4.0972 -27.00907,7.9258 -1.25466,0.6972 -2.50932,1.3944 -3.76397,2.0916 0,0 16.05816,-12.9087 16.05816,-12.9087 l 0,0 c 1.23793,-0.6253 2.47585,-1.2505 3.71377,-1.8757 8.32681,-3.6085 18.60883,-7.8976 27.86304,-7.0131 1.58057,0.151 3.09574,0.7074 4.6436,1.0611 1.04055,0.7427 2.29924,1.2493 3.12165,2.2281 1.26933,1.5107 1.05865,4.0671 0.98934,5.7918 -0.17394,4.3283 -0.80553,8.6364 -1.39751,12.9204 -0.78323,3.8012 -1.06842,5.8695 -2.39391,9.5418 -2.38389,6.6046 -6.49154,12.4844 -11.22121,17.6089 -10.21544,9.5194 -3.49574,3.7653 -26.12147,17.3774 -7.71092,4.639 -16.19581,7.8744 -25.0282,9.5772 -6.25659,0.8659 -19.60361,3.9473 -22.00397,-4.8016 -0.30534,-1.1129 -0.19179,-2.3001 -0.28768,-3.4502 0.16922,-1.3466 0.23508,-2.7104 0.50767,-4.04 1.24432,-6.0692 4.21671,-11.751 8.06407,-16.5599 0,0 19.68897,-7.9013 19.68897,-7.9013 z"
       inkscape:connector-curvature="0" />
    <path
       style="fill:#666666"
       id="path3075"
       d="m 424.69618,1134.8807 c -7.80014,2.4536 -15.76488,4.5414 -23.2281,7.9418 -2.13134,0.9711 -4.19354,2.0873 -6.29032,3.1309 -2.13282,1.2019 -8.57128,4.7336 -6.39846,3.6056 3.47172,-1.8022 6.56665,-4.4509 10.29661,-5.6292 2.41908,-0.7642 -4.21297,2.8312 -6.24542,4.3495 -4.64279,3.4682 -8.60066,7.2158 -12.32729,11.6181 -0.71719,1.4194 -2.28938,3.1247 -1.19613,4.9019 1.93247,3.1414 11.07512,3.5929 14.13946,3.9463 6.27463,0.356 12.83561,1.2401 18.96869,-0.7106 1.42373,-0.4528 5.38363,-2.5682 4.1109,-1.7857 -4.43999,2.7296 -9.09331,5.096 -13.63996,7.6441 11.66738,-9.0605 14.03301,-23.0308 17.18757,-36.6786 3.71687,-18.2466 5.77101,-36.765 8.71877,-55.1409 0.3189,-2.0017 0.64591,-4.0021 0.9567,-6.005 0.25512,-1.6441 0.50071,-3.2898 0.74103,-4.9361 0.17677,-1.211 0.37587,-2.4195 0.51025,-3.6359 0.0378,-0.3418 -0.30856,-0.8912 0.005,-1.0315 20.64964,-9.2332 19.17697,-13.9831 18.86458,-2.2602 0.0757,17.3461 1.01759,34.6916 2.90902,51.9333 1.09261,7.9447 3.16842,15.6867 5.35842,23.383 0,0 -17.96382,9.7566 -17.96382,9.7566 l 0,0 c -2.01038,-7.9028 -4.09719,-15.81 -5.01654,-23.9352 -1.60856,-17.2401 -2.26301,-34.5422 -3.47759,-51.811 -0.96974,-12.0339 -1.86832,-4.8709 18.46848,-16.2113 0.35559,-0.1983 -0.44439,0.6974 -0.54955,1.0908 -0.32858,1.2289 -0.50555,2.4936 -0.74295,3.7433 -0.70432,3.7079 -1.3309,7.4304 -2.06289,11.1331 -3.42678,18.4241 -5.84975,36.9905 -9.13114,55.4378 -1.8694,9.0414 -1.75265,9.3537 -4.1911,17.921 -0.67014,2.3545 -1.24567,4.7489 -2.16537,7.0176 -2.0056,4.9473 -5.40568,9.2534 -9.27264,12.853 -3.69268,2.1148 -17.35907,11.7733 -26.03953,13.897 -6.29324,1.5397 -12.86222,0.5481 -19.2125,0.1353 -4.6667,-0.5918 -17.53134,-1.5676 -16.62958,-9.1066 0.15162,-1.2676 1.00543,-2.347 1.50815,-3.5205 1.03437,-1.3028 1.97521,-2.6857 3.1031,-3.9085 12.33216,-13.3694 30.84438,-21.5601 46.08148,-30.5662 2.15435,-1.0291 4.27571,-2.1303 6.46304,-3.0873 7.82335,-3.4227 16.1208,-5.6187 24.17599,-8.4046 0,0 -16.78671,12.9249 -16.78671,12.9249 z"
       inkscape:connector-curvature="0" />
    <path
       style="fill:#666666"
       id="path3077"
       d="m 497.07013,1117.5714 c 6.54008,-0.1286 12.977,1.2532 19.34004,2.6278 5.62646,1.3001 13.11307,2.5802 17.7832,6.2464 0.81649,0.6409 1.45962,1.4763 2.18943,2.2144 3.78925,5.2868 4.19787,11.2317 0.17663,16.6709 -1.03031,1.3937 -2.38806,2.5124 -3.58209,3.7686 -14.71697,11.3039 -31.51043,19.1305 -49.20471,24.2057 -1.82391,0.4847 -5.96817,1.5152 -7.84671,2.2653 -0.95266,0.3804 -3.63796,1.8963 -2.74404,1.3931 5.33068,-2.9501 10.66136,-5.9001 15.99204,-8.8501 -0.32099,0.3726 -0.79212,0.6567 -0.96298,1.1179 -0.11883,0.3207 0.11613,0.6741 0.17419,1.0112 0.49582,0.5917 0.90802,1.265 1.48746,1.7751 6.4728,5.6985 15.49796,7.9508 23.61214,9.9946 6.92841,0.9857 14.95475,3.4864 21.80814,0.6607 0.71162,-0.2935 1.33897,-0.7597 2.00846,-1.1396 0,0 -16.43658,13.0403 -16.43658,13.0403 l 0,0 c -7.83692,2.6918 -16.18411,0.4481 -24.0524,-1.085 -8.10087,-2.1746 -18.44707,-4.9403 -24.84855,-10.7038 -0.77883,-0.7012 -1.35547,-1.5987 -2.0332,-2.398 -0.33199,-0.8654 -0.95469,-1.6702 -0.99598,-2.5962 -0.0301,-0.6744 0.23622,-1.4861 0.79718,-1.8617 12.44947,-8.3359 17.86501,-12.2091 30.27788,-15.1349 5.17736,-1.5148 10.24681,-3.1634 15.22027,-5.2748 1.90444,-0.8085 7.31217,-3.7983 5.65378,-2.5612 -2.10233,1.5682 -20.44073,12.3885 -6.815,3.9328 1.21309,-1.0637 2.56094,-1.9909 3.63927,-3.1909 4.01885,-4.4724 4.329,-9.3522 0.88665,-14.1237 -0.62788,-0.6023 -1.18489,-1.2885 -1.88364,-1.8069 -4.75984,-3.5312 -11.62913,-4.4771 -17.22827,-5.7898 -6.43672,-1.2625 -12.94516,-2.4136 -19.53306,-1.9695 0,0 17.12045,-12.4387 17.12045,-12.4387 z"
       inkscape:connector-curvature="0" />
    <path
       style="fill:#666666"
       id="path3079"
       d="m 573.62441,1132.8534 c -0.68995,16.9091 -0.73684,33.8375 -0.66724,50.7579 0.0497,8.6409 0.19227,17.2805 0.53029,25.915 0,0 -18.40351,9.3771 -18.40351,9.3771 l 0,0 c 0.33184,-8.8149 0.48109,-17.6344 0.5303,-26.4554 0.0684,-16.6937 0.0351,-33.3962 -0.66725,-50.078 0,0 18.67741,-9.5166 18.67741,-9.5166 z"
       inkscape:connector-curvature="0" />
    <path
       style="fill:#666666"
       id="path3085"
       d="m 612.87184,1158.7452 c 6.78412,-0.5615 13.58903,-0.7427 20.39234,-0.8774 9.312,0.063 18.61688,-0.1661 27.81303,-1.7055 7.01643,-2.2859 21.5335,-10.3068 -8.15151,5.6839 -0.87389,0.4708 1.6527,-1.1037 2.43091,-1.7199 1.93586,-1.5328 2.01496,-1.8133 3.54527,-3.6511 1.57027,-2.6675 3.94251,-7.141 1.19621,-9.9335 -0.49109,-0.4994 -1.16829,-0.7728 -1.75243,-1.1592 -6.9174,-2.9078 -14.79171,-2.5743 -22.17294,-2.7497 -6.23724,0.096 -12.52373,-0.446 -18.7456,0.2062 -1.14094,0.1196 -2.30106,0.2002 -3.40131,0.525 -0.90845,0.2683 -1.70624,0.8232 -2.55937,1.2348 5.23733,-2.7892 10.21672,-6.129 15.712,-8.3676 1.0024,-0.4084 -1.30536,1.7395 -1.80209,2.7012 -2.94843,5.7081 -3.89355,12.2977 -4.87561,18.5566 -0.0524,3.8871 -2.49365,12.7391 0.0401,16.1436 0.33939,0.456 0.90715,0.6853 1.36072,1.0279 7.63345,2.0873 15.77728,1.9685 23.63139,1.6496 4.02689,-0.2541 7.93667,-0.9646 11.83718,-1.9431 0,0 -16.46977,12.5312 -16.46977,12.5312 l 0,0 c -3.94801,0.7861 -7.90149,1.3945 -11.93727,1.526 -6.41586,0.1215 -15.8562,0.4414 -21.97593,-1.4138 -1.02303,-0.3101 -1.96014,-0.8537 -2.9402,-1.2806 -0.61596,-0.6212 -1.36696,-1.1328 -1.84787,-1.8635 -2.84322,-4.3203 -0.22825,-12.6193 -0.0492,-17.3707 0.72691,-5.0134 1.50928,-9.966 2.90451,-14.8478 0.0865,-0.3026 2.09509,-6.95 2.83635,-7.4916 6.33933,-4.6323 13.33953,-8.2849 20.0093,-12.4273 8.06383,-2.2554 16.62943,-0.807 24.89284,-1.108 7.77136,0.2044 16.22501,-0.2042 23.25359,3.5698 0.74469,0.6135 1.6021,1.1114 2.23406,1.8404 3.10359,3.5805 1.61773,8.3836 -0.16003,12.1474 -1.54228,2.3321 -3.31286,4.7011 -5.77274,6.1773 -9.66097,5.7978 -17.31811,11.6536 -27.76196,14.1681 -9.27858,1.2358 -18.63393,1.3917 -27.9843,1.5113 -6.90558,0.1952 -13.82572,0.4218 -20.68328,1.3165 0,0 16.95355,-12.6065 16.95355,-12.6065 z"
       inkscape:connector-curvature="0" />
    <path
       style="fill:#666666"
       id="path3087"
       d="m 713.69862,1086.2469 c -0.74571,16.5765 -0.84138,33.1694 -0.94811,49.7599 -0.22928,17.4601 0.17968,34.9075 1.03424,52.3448 0,0 -17.70424,9.0892 -17.70424,9.0892 l 0,0 c -0.22342,-17.6025 -0.38536,-35.2036 -0.25962,-52.8079 -0.10534,-16.2685 -0.19,-32.54 -0.9481,-48.7938 0,0 18.82583,-9.5922 18.82583,-9.5922 z"
       inkscape:connector-curvature="0" />
    <path
       style="fill:#666666"
       id="path3089"
       d="m 764.51583,1174.3056 c -7.64952,-0.739 -15.06259,0.9229 -22.47624,2.5485 -1.73523,0.5684 -5.52861,1.7686 -7.29656,2.5033 -1.03496,0.43 -4.0031,2.0118 -3.03454,1.4479 27.05758,-15.7533 16.63757,-10.8191 11.79068,-5.2647 -1.43887,2.4556 -3.39808,5.979 -2.00145,8.8853 0.2725,0.5671 0.71117,1.038 1.06676,1.5571 4.64762,5.1278 11.54758,6.5655 18.05944,7.8631 5.32019,0.927 10.72666,1.0066 16.11082,1.0023 4.63436,-0.2705 7.48563,1.6701 10.05004,5.3107 2.17538,3.9813 2.38824,8.3654 2.16963,12.7875 -0.2664,1.9919 -0.18512,2.5736 -1.12765,4.4538 -4.06064,8.1001 -23.30177,16.2538 -26.00414,17.8212 -8.35907,3.5968 -17.61619,3.7005 -26.54065,4.5171 -7.78262,0.5698 -15.47632,1.8893 -23.243,2.6277 -2.04301,0.1356 -4.0854,0.2578 -6.12005,0.488 0,0 17.05558,-12.578 17.05558,-12.578 l 0,0 c 1.94762,-0.048 3.89309,-0.1532 5.83346,-0.3339 7.641,-0.7021 15.23619,-1.8398 22.89475,-2.3644 8.92412,-0.8152 18.19432,-1.188 26.29781,-5.4325 -5.00347,2.9297 -9.99346,5.8825 -15.01042,8.7891 -0.77088,0.4466 1.55346,-0.8812 2.27133,-1.4088 2.43395,-1.7889 4.52206,-4.103 4.94801,-7.1709 0.28503,-3.931 0.31972,-7.8892 -1.58035,-11.4759 -2.38239,-3.2631 -4.91888,-3.8508 -8.89421,-3.7071 -5.41544,-0.1196 -10.85367,-0.3264 -16.16563,-1.4883 -6.95175,-1.6598 -14.1805,-3.5258 -19.11504,-9.0658 -0.46492,-0.6871 -1.01884,-1.3217 -1.39476,-2.0612 -1.78172,-3.5051 -0.36059,-7.4285 1.19532,-10.7218 7.25213,-11.172 21.82822,-15.7272 34.16101,-19.4138 7.67938,-1.5982 15.36869,-2.8453 23.24745,-2.5738 0,0 -17.1474,12.4583 -17.1474,12.4583 z"
       inkscape:connector-curvature="0" />
    <path
       style="fill:#666666"
       id="path3091"
       d="m 822.25521,1174.9967 c -0.31711,9.3978 -0.32238,18.8032 -0.36763,28.2054 -0.0279,7.4235 -0.002,14.8459 0.0976,22.2687 0,0 -18.2562,9.302 -18.2562,9.302 l 0,0 c 0.0983,-7.456 0.1259,-14.9116 0.0976,-22.3683 -0.0449,-9.2772 -0.0469,-18.5579 -0.36763,-27.8307 0,0 18.79616,-9.5771 18.79616,-9.5771 z"
       inkscape:connector-curvature="0" />
    <path
       style="fill:#666666"
       id="path3093"
       d="m 866.91272,1188.9902 c 5.15932,0.1019 10.32082,0.097 15.48112,0.1083 3.13281,0.022 6.1556,-0.6217 9.0105,-1.9049 0.78992,-0.355 3.04643,-1.6486 2.29428,-1.2193 -16.97516,9.6892 -20.71517,13.0584 -14.57589,7.8014 2.12447,-2.5336 3.25535,-5.752 1.94863,-8.9088 -1.60288,-3.2777 -5.83885,-3.0295 -8.99883,-3.3051 -5.29559,-0.3301 -10.8376,-0.6536 -15.75669,1.7585 -1.13442,0.5563 -2.15222,1.3242 -3.22833,1.9862 4.74462,-2.536 9.22534,-5.6439 14.23386,-7.608 1.53394,-0.6015 -2.44939,2.2115 -3.56478,3.4242 -1.13093,1.2297 -2.20019,2.5226 -3.16146,3.889 -3.02297,4.2969 -4.60823,8.9032 -6.12572,13.8684 -1.94601,8.3869 -2.88023,17.0652 -1.96867,25.6449 1.70618,7.5869 4.88194,9.5925 11.24885,13.423 9.25801,5.0739 19.90432,5.8269 30.22296,6.571 9.75386,0.533 19.91394,0.3345 29.14733,-3.2625 1.45163,-0.5655 2.8194,-1.3263 4.22909,-1.9894 10.67503,-6.3454 -4.41731,2.6704 -11.3,6.1661 -0.8182,0.4155 1.428,-1.1569 2.08722,-1.7953 0.77282,-0.7484 1.85054,-1.8549 2.00699,-3.0043 0,0 18.74153,-9.9684 18.74153,-9.9684 l 0,0 c 0.13994,0.5315 0.44116,1.0453 0.41984,1.5945 -0.0743,1.9146 -2.52068,4.6378 -3.952,5.5495 -14.59401,9.2955 -14.63836,9.2306 -24.09596,14.1916 -1.43526,0.5764 -2.83788,1.2418 -4.30578,1.7291 -9.43218,3.1312 -19.56257,3.1054 -29.36539,2.5206 -10.70334,-0.7303 -21.65397,-1.7299 -31.2,-7.079 -6.96302,-4.2532 -10.41677,-6.7375 -12.28608,-15.0296 -0.89896,-8.8627 0.0976,-17.8122 1.91651,-26.5092 1.96465,-7.0705 4.06004,-12.9332 8.83639,-18.6663 1.05073,-1.2612 2.01333,-2.6659 3.36843,-3.5924 6.79421,-4.6451 13.9763,-8.6958 20.96445,-13.0438 1.17914,-0.5738 2.31301,-1.2519 3.53742,-1.7215 5.22305,-2.003 10.96069,-1.4836 16.40863,-1.1754 4.05184,0.4775 8.49496,0.924 10.38111,5.0939 1.61138,3.7956 1.13548,7.6122 -0.99167,11.1434 -5.98162,7.7404 -1.25262,2.0724 -21.1943,13.3297 -3.52663,1.9908 -7.85898,2.1767 -11.78152,2.3398 -5.25977,0.012 -10.52063,0.01 -15.77948,0.1084 0,0 17.14741,-12.4583 17.14741,-12.4583 z"
       inkscape:connector-curvature="0" />
    <path
       style="fill:#666666"
       id="path3095"
       d="m 906.99126,1231.1296 c 5.17379,9.7032 11.61497,18.5983 18.22684,27.3516 1.65942,1.8944 3.27103,3.8317 4.97827,5.6831 5.96027,6.4634 13.37877,11.745 18.52613,18.9011 0,0 -17.98712,10.5431 -17.98712,10.5431 l 0,0 c -2.19259,-3.5693 -4.98699,-6.3363 -7.9534,-9.3 -5.41058,-5.4056 -4.15644,-3.8847 -9.64739,-9.8283 -1.74986,-1.8941 -3.44675,-3.8364 -5.17012,-5.7547 -6.65646,-8.8569 -13.18151,-17.7851 -19.30299,-27.0241 0,0 18.32978,-10.5718 18.32978,-10.5718 z"
       inkscape:connector-curvature="0" />
    <path
       style="fill:#1a1a1a"
       id="path3109"
       d="m 249.41614,902.19248 c -0.0973,0.49929 -0.15429,1.00815 -0.29192,1.49786 -0.9413,3.34935 -2.49383,6.53603 -3.80471,9.74602 -2.68452,6.5736 -0.55082,1.63633 -3.46292,8.19128 -2.0073,4.0317 -3.70527,8.21531 -5.76403,12.22121 0,0 -10.53833,4.55493 -10.53833,4.55493 l 0,0 c 1.42809,-1.47109 2.15081,-3.43007 3.0427,-5.24731 4.8043,-9.78879 -1.84033,3.84644 3.45703,-7.04337 2.4634,-5.45755 1.25447,-2.59825 3.42913,-8.13259 1.3592,-3.45906 2.91761,-6.89757 3.66525,-10.55633 0,0 10.2678,-5.2317 10.2678,-5.2317 z"
       inkscape:connector-curvature="0" />
    <path
       style="fill:#1a1a1a"
       id="path3111"
       d="m 245.19057,884.47632 c 6.56406,1.05111 12.69848,3.87506 18.67767,6.66786 4.79357,2.39212 9.6896,4.89044 12.96995,9.25092 0.60781,1.04214 1.43435,3.03252 0.003,3.97789 -8.94264,5.90451 -9.16338,6.51893 -16.91977,7.62854 -6.08408,0.88906 -12.22046,1.29502 -18.35832,1.56896 -2.70957,0.0988 -1.41588,0.0103 -3.88242,0.24497 0,0 9.09965,-6.7137 9.09965,-6.7137 l 0,0 c 2.42425,-0.12456 1.15916,-0.0766 3.7956,-0.13477 6.08034,-0.21503 12.1623,-0.60828 18.17153,-1.60664 1.02234,-0.19937 2.05802,-0.33956 3.06702,-0.59811 0.82674,-0.21184 3.11392,-1.31909 2.42882,-0.81014 -2.47902,1.8416 -5.24897,3.25532 -7.88531,4.86363 -0.34795,0.21227 0.77082,-0.35215 1.01946,-0.6751 0.52047,-0.67599 -0.062,-1.39502 -0.32053,-1.96361 -2.96972,-4.29368 -7.67872,-6.73094 -12.2294,-9.04768 -5.9781,-2.77111 -12.23386,-5.60527 -18.91567,-5.91143 0,0 9.279,-6.74159 9.279,-6.74159 z"
       inkscape:connector-curvature="0" />
    <path
       style="fill:#1a1a1a"
       id="path3113"
       d="m 288.7682,902.02786 c -0.97746,4.80134 -2.02705,9.8629 -1.47693,14.79344 0.10542,0.9448 0.38819,1.86128 0.58228,2.79193 0.36963,0.77239 0.61722,1.61612 1.1089,2.31717 3.29063,4.69194 10.85507,4.70851 15.84506,4.96187 6.51153,-0.22613 12.98404,-1.54808 18.85384,-4.44748 1.0753,-0.53115 4.19929,-2.31198 3.11193,-1.80595 -2.40987,1.1215 -4.72452,2.43717 -7.08679,3.65576 2.6875,-2.50906 4.41353,-5.48928 2.93396,-9.20613 -0.24335,-0.61135 -0.65207,-1.14309 -0.9781,-1.71464 -0.51003,-0.45234 -0.96191,-0.98031 -1.53008,-1.35703 -4.70258,-3.11801 -12.76415,-2.38584 -18.03112,-1.89323 -4.64383,0.44599 -9.12186,1.75344 -13.60144,2.97514 0,0 8.58103,-6.57987 8.58103,-6.57987 l 0,0 c 4.49121,-1.14917 8.98629,-2.35236 13.62341,-2.76175 5.60562,-0.46248 14.09609,-1.17176 18.97018,2.35937 0.64345,0.46617 1.1497,1.09708 1.72455,1.64561 0.37039,0.65565 0.82045,1.27228 1.11114,1.96694 1.75115,4.18453 0.45501,7.36111 -2.52628,10.44365 -0.48497,0.30403 -10.71807,7.13501 -14.80776,8.96841 -5.98124,2.68137 -12.48911,3.84708 -19.01493,3.98 -5.74548,-0.29885 -13.20823,-0.27616 -16.85845,-5.70938 -0.52668,-0.78395 -0.79471,-1.71357 -1.19206,-2.57036 -0.20495,-0.99775 -0.50057,-1.98111 -0.61485,-2.99327 -0.55958,-4.95598 0.45268,-9.97463 0.96735,-14.8836 0,0 10.30516,-4.9366 10.30516,-4.9366 z"
       inkscape:connector-curvature="0" />
    <path
       style="fill:#1a1a1a"
       id="path3115"
       d="m 365.48821,916.85992 c -4.3708,-0.002 -8.77893,-0.41763 -13.13995,0.042 -1.21697,0.12827 -2.41738,0.38229 -3.62607,0.57344 1.88089,-1.93787 -8.72524,3.74032 -6.5152,2.87425 2.28245,-0.89445 4.17914,-3.00712 6.62325,-3.19671 1.21211,-0.094 -1.59428,1.84471 -2.26508,2.85865 -1.56364,2.36345 -1.93808,3.73996 -2.94117,6.33811 -0.71653,2.57881 -2.02445,6.62739 -0.40438,9.18905 0.6404,1.01261 1.45135,1.21159 2.47199,1.70139 0.64313,0.15421 1.27329,0.37942 1.9294,0.46262 2.87999,0.36522 5.67013,-0.38555 8.30537,-1.50724 1.12564,-0.47914 4.36418,-2.21263 3.28611,-1.63437 -2.02364,1.08545 -4.08234,2.1042 -6.12351,3.1563 1.0296,-0.92959 2.14466,-1.77249 3.08878,-2.78878 6.33465,-6.81883 7.63537,-15.46004 8.92062,-24.29828 1.09719,-12.19549 -0.40932,-24.39434 -2.82902,-36.33851 -0.86228,-3.33956 -1.29741,-7.0565 -3.45903,-9.8611 0,0 9.81124,-5.79382 9.81124,-5.79382 l 0,0 c 0.26663,0.39584 0.57845,0.76474 0.79987,1.18753 1.50338,2.87057 1.73098,6.28156 2.40277,9.38323 1.91124,12.16532 3.37113,24.48496 2.61581,36.81834 -1.08757,8.89783 -2.17654,17.69865 -8.2361,24.78631 -0.90405,1.05743 -1.9901,1.94459 -2.98515,2.91688 -5.80132,3.5315 -14.3972,10.37636 -22.27308,10.56436 -2.18555,0.0521 -2.73986,-0.27285 -4.72151,-0.87043 -1.31078,-0.78499 -2.0892,-1.02185 -2.89279,-2.40655 -1.68752,-2.90781 -0.47086,-7.10356 0.34348,-10.03843 0.8682,-2.39363 2.97382,-8.17089 4.99769,-9.71876 3.80285,-2.90845 7.99168,-5.27706 12.0691,-7.78614 1.00852,-0.6206 2.06735,-1.17465 3.17469,-1.59426 1.14702,-0.43465 2.36909,-0.63692 3.55364,-0.95538 1.23196,-0.16567 2.45808,-0.38284 3.69588,-0.49701 4.52967,-0.41778 9.0931,-0.0927 13.63066,-0.3296 0,0 -9.30831,6.76289 -9.30831,6.76289 z"
       inkscape:connector-curvature="0" />
    <path
       style="fill:#1a1a1a"
       id="path3117"
       d="m 393.37062,903.10666 c 5.59461,0.27234 11.20454,0.0573 16.79957,0.24741 1.77249,0.0602 3.54077,0.21083 5.31115,0.31625 4.49428,0.6626 9.18606,0.48636 13.61346,1.63373 1.79001,0.46389 3.87424,1.22158 5.07513,2.77643 0.42296,0.54763 0.51713,1.28365 0.77569,1.92547 -0.22681,0.77965 -0.23232,1.66184 -0.68045,2.33894 -1.35999,2.05492 -4.65675,4.11912 -6.60615,5.22262 -4.74897,2.68827 -9.5009,5.3837 -14.39646,7.79474 -1.15898,0.57079 -12.16631,4.52835 -13.12726,4.87731 -6.19461,2.18521 -12.40533,4.31847 -18.57649,6.56918 -1.4389,0.52478 -2.90733,0.97541 -4.31504,1.57887 -1.02775,0.44058 -3.96352,2.07275 -2.97665,1.54693 2.6856,-1.43091 5.38197,-2.84152 8.07296,-4.26229 0.007,0.24488 -0.1586,0.56798 0.0209,0.73464 1.90467,1.76786 10.16954,3.1971 12.10756,3.51197 6.31853,1.02656 10.28284,1.25533 16.7518,1.83434 12.32333,0.77957 24.68989,1.5714 37.01781,0.54373 3.0181,-0.49106 1.67497,-0.1366 4.06091,-0.93582 0,0 -8.98799,6.9006 -8.98799,6.9006 l 0,0 c -2.34046,0.48064 -1.03383,0.26821 -3.93205,0.5573 -12.08596,0.50465 -24.15344,-0.57874 -36.20937,-1.31932 -6.59902,-0.5211 -10.72532,-0.74198 -17.19884,-1.6405 -2.9121,-0.40419 -11.40595,-1.3455 -13.68429,-4.11833 -0.39165,-0.47665 -0.25458,-1.20729 -0.38186,-1.81094 3.65752,-2.2897 7.25718,-4.67455 10.97257,-6.8691 1.84484,-1.08967 5.14957,-2.09946 7.00536,-2.74621 6.10245,-2.12672 12.22935,-4.18194 18.30926,-6.37312 2.29651,-0.85204 4.60472,-1.67317 6.88953,-2.5561 2.14245,-0.82791 4.09502,-2.64035 6.39097,-2.57593 1.54965,0.0435 -4.09468,1.12165 -3.82333,2.64797 0.26495,1.4903 2.62655,-1.51209 3.87245,-2.37171 2.61615,-1.80502 2.18233,-1.49159 3.52733,-3.62032 -0.12536,-0.48411 -0.0901,-1.04211 -0.37609,-1.45235 -1.68761,-2.42079 -5.69252,-2.75826 -8.25441,-3.1366 -3.06021,-0.45193 -6.49122,-0.72704 -9.55555,-1.01312 -7.59802,-0.34448 -15.19852,-0.20348 -22.80049,0.006 0,0 9.30831,-6.76289 9.30831,-6.76289 z"
       inkscape:connector-curvature="0" />
    <path
       style="fill:#1a1a1a"
       id="path3119"
       d="m 461.41705,905.78441 c -0.35527,7.61798 -0.32595,15.24781 -0.24131,22.87155 0.0179,1.08182 0.0359,2.16364 0.0539,3.24546 0,0 -9.81223,4.99958 -9.81223,4.99958 l 0,0 c 0.0179,-1.10012 0.0359,-2.20023 0.0539,-3.30035 0.0828,-7.54166 0.12118,-15.09004 -0.24131,-22.62566 0,0 10.18711,-5.19058 10.18711,-5.19058 z"
       inkscape:connector-curvature="0" />
    <path
       style="fill:#1a1a1a"
       id="path3125"
       d="m 496.75834,917.09273 c 4.3518,0.30306 8.49059,-1.08736 12.47183,-2.67459 0.71205,-0.37223 2.83488,-1.51335 2.13613,-1.11671 -14.79369,8.39764 -7.56546,5.04515 -5.31858,1.91999 0.72087,-1.00265 0.82808,-1.46716 1.27423,-2.58958 -0.0147,-0.39727 0.0708,-0.81118 -0.0439,-1.1918 -1.02629,-3.40474 -7.46899,-4.77393 -10.35627,-5.55323 -2.7707,-0.43135 -3.54756,-0.83209 -6.34767,-0.14433 -1.04899,0.25765 -3.9168,1.77849 -3.0186,1.1785 2.02342,-1.35163 4.02424,-3.08887 6.42958,-3.45699 1.35697,-0.20768 -2.04101,1.85214 -2.90641,2.91779 -0.99015,1.21928 -1.75685,2.60416 -2.63528,3.90624 -3.16435,6.33669 -6.8639,15.20021 -4.72237,22.40112 0.38456,1.29312 1.14957,2.44105 1.72435,3.66157 1.07489,1.05605 1.99978,2.2905 3.22467,3.16815 3.22277,2.30918 7.34732,3.63522 11.11343,4.58339 4.28239,1.07816 10.98673,2.08737 15.34459,2.45731 2.54445,0.216 5.10258,0.21732 7.65388,0.32598 5.71636,-0.0764 11.68406,-0.23967 17.03009,-2.56623 1.1384,-0.49542 2.13643,-1.26541 3.20465,-1.89811 0,0 -8.51661,6.86352 -8.51661,6.86352 l 0,0 c -1.07005,0.53569 -2.0866,1.19524 -3.21016,1.60706 -5.34433,1.95887 -11.15696,1.94394 -16.75491,1.92367 -2.54798,-0.14272 -5.10275,-0.19379 -7.64393,-0.42817 -4.33598,-0.39992 -11.38245,-1.42386 -15.64575,-2.46892 -4.04154,-0.99071 -8.27874,-2.31315 -11.71997,-4.78479 -1.33069,-0.95574 -2.33634,-2.29744 -3.5045,-3.44616 -0.61955,-1.31638 -1.43646,-2.55687 -1.85865,-3.94916 -2.32614,-7.67109 1.38904,-16.25629 4.45778,-23.13097 1.05557,-1.73572 3.28366,-5.89309 5.15419,-7.17709 5.1052,-3.50437 12.0109,-8.82931 19.01218,-8.36288 1.0941,0.0729 2.1591,0.38438 3.23866,0.57657 3.6593,1.05223 9.81992,2.45339 11.32972,6.52537 0.19366,0.52231 0.17409,1.10043 0.26113,1.65064 -0.41861,1.333 -0.45289,1.69843 -1.17378,2.92968 -0.58697,1.0025 -1.40833,2.1523 -2.41513,2.78556 -9.332,5.86962 -7.89657,5.11278 -13.57816,7.76639 -4.18695,1.53223 -8.48022,2.69433 -12.98407,2.54344 0,0 9.29366,-6.75223 9.29366,-6.75223 z"
       inkscape:connector-curvature="0" />
    <path
       style="fill:#1a1a1a"
       id="path3127"
       d="m 549.16889,877.24025 c -0.17909,5.50094 -0.45438,11.02045 -0.25101,16.52542 0.1734,4.6939 0.45046,6.42568 0.96476,11.0732 0.54255,5.31801 1.9329,10.4764 3.41044,15.5935 0,0 -9.74052,5.28385 -9.74052,5.28385 l 0,0 c -1.26399,-5.27264 -2.49661,-10.56706 -3.03603,-15.9744 -0.43689,-3.95324 -0.84474,-7.15396 -1.06563,-11.13121 -0.2995,-5.39277 -0.0868,-10.80501 -0.43683,-16.19621 0,0 10.15482,-5.17415 10.15482,-5.17415 z"
       inkscape:connector-curvature="0" />
    <path
       style="fill:#1a1a1a"
       id="path3131"
       d="m 622.40735,903.64523 c -5.51367,-0.34982 -11.01274,0.062 -16.38038,1.35479 -0.69265,0.24949 -1.41064,0.43753 -2.07797,0.74847 -0.54624,0.25452 -2.07794,1.22005 -1.54462,0.93945 2.85492,-1.50208 5.51643,-3.40785 8.51194,-4.60523 0.55711,-0.22269 -0.71165,0.99008 -0.89608,1.561 -0.791,2.44859 0.0726,2.44428 1.59242,4.71978 5.75159,6.23292 13.52958,9.82872 21.28258,12.90495 3.43861,1.25752 6.3203,3.08435 6.46176,7.1625 0.0238,0.68635 -0.1641,1.36369 -0.24616,2.04554 -0.40175,0.7239 -0.68257,1.52964 -1.20524,2.1717 -0.63173,0.77603 -1.36077,1.50424 -2.21346,2.0279 -4.10616,2.52169 -8.28692,4.93924 -12.60705,7.07372 -1.25258,0.61887 -2.66897,0.83751 -4.03141,1.14695 -3.4194,0.77663 -6.39004,1.0557 -9.8706,1.4894 -7.06444,0.61185 -14.17124,1.3276 -21.2715,1.10597 -0.47469,-0.0385 -0.94938,-0.077 -1.42407,-0.11551 0,0 9.27601,-6.60424 9.27601,-6.60424 l 0,0 c 0.42308,0.048 0.84616,0.096 1.26923,0.14396 6.89916,0.29498 13.82121,-0.24609 20.68414,-0.90379 3.74613,-0.52602 6.25275,-0.75605 9.90067,-1.74179 1.36784,-0.36961 4.95292,-2.43432 4.0265,-1.36224 -1.60418,1.85643 -4.0937,2.71363 -6.23274,3.91539 -0.81291,0.45671 1.5676,-1.02896 2.24173,-1.67314 0.52414,-0.50085 0.87929,-1.15289 1.31894,-1.72933 0.13783,-0.56462 0.38384,-1.11341 0.41352,-1.69384 0.1772,-3.46538 -2.93976,-5.20726 -5.68929,-6.3181 -7.75871,-3.43003 -15.4792,-7.38014 -21.49514,-13.48998 -0.82199,-1.09035 -1.91992,-2.0195 -2.46596,-3.27104 -0.24261,-0.55607 0.029,-3.73529 0.69454,-4.24292 4.55659,-3.47579 9.05171,-6.63528 14.4633,-8.14242 5.54136,-1.08118 11.15462,-1.35535 16.7934,-1.35949 0,0 -9.27901,6.74159 -9.27901,6.74159 z"
       inkscape:connector-curvature="0" />
    <path
       style="fill:#1a1a1a"
       id="path3133"
       d="m 650.97411,896.75552 c -0.37469,7.84349 -0.38396,15.70038 -0.41016,23.55121 0.12551,7.03777 -0.35833,14.32878 1.84782,21.11703 0.47682,0.83666 0.1485,0.69663 0.69165,0.81748 0,0 -9.81444,6.11535 -9.81444,6.11535 l 0,0 c -0.63892,-0.80331 -0.33406,-0.31657 -0.81311,-1.51904 -1.74833,-7.09394 -1.29936,-14.47167 -1.35938,-21.7171 -0.0258,-7.7114 -0.0289,-15.42956 -0.41017,-23.13322 0,0 10.26779,-5.23171 10.26779,-5.23171 z"
       inkscape:connector-curvature="0" />
    <path
       style="fill:#1a1a1a"
       id="path3135"
       d="m 672.12316,908.53829 c 2.91708,0.0781 5.83543,0.049 8.75315,0.0542 1.40851,0.0554 2.89254,-0.0785 4.20055,-0.66193 0.3935,-0.17553 1.48161,-0.87985 1.10382,-0.67265 -9.02553,4.95016 -11.01783,7.44457 -8.03872,4.01623 0.94242,-1.72 1.8936,-4.17303 0.96063,-6.1057 -0.21417,-0.44365 -0.57814,-0.79784 -0.86721,-1.19676 -0.51984,-0.33265 -0.99544,-0.74752 -1.5595,-0.99797 -4.75374,-2.11076 -10.00237,-1.48437 -14.74622,0.29512 -1.56039,0.58533 -3.0212,1.40784 -4.5318,2.11176 1.62138,-0.79919 3.44768,-3.52063 4.86413,-2.39758 1.29453,1.02639 -2.50614,2.16443 -3.62407,3.38077 -2.81107,3.05851 -5.41951,7.00625 -5.80074,11.26661 -0.11431,1.27745 0.16614,2.55972 0.24921,3.83958 0.50937,1.28598 0.83483,2.66103 1.5281,3.85793 1.86818,3.22529 4.27722,5.26024 7.32727,7.37624 4.15308,2.88123 8.17275,4.85933 12.88325,6.72719 2.54972,1.01104 5.18381,1.79476 7.77572,2.69215 10.97696,2.91238 22.28291,5.47911 33.70609,5.53631 1.23867,0.006 2.47555,-0.0952 3.71333,-0.14287 0.9032,-0.16899 1.83463,-0.22636 2.70961,-0.50698 0.65656,-0.21056 2.44447,-1.27708 1.83687,-0.95113 -8.92259,4.78662 -9.72853,7.61662 -8.23288,3.59689 0,0 10.24849,-4.97978 10.24849,-4.97978 l 0,0 c -0.0432,0.53375 0.29443,1.27437 -0.12973,1.60124 -3.34509,2.57786 -7.07356,4.62176 -10.71683,6.75756 -0.57905,0.33946 -1.25021,0.51018 -1.90805,0.64356 -0.87002,0.17638 -1.76559,0.18681 -2.64838,0.28022 -12.52557,-0.15389 -24.85207,-2.91474 -36.88713,-6.20995 -2.63556,-0.90385 -5.31079,-1.69938 -7.90668,-2.71155 -4.65308,-1.81429 -9.18441,-3.95399 -13.34393,-6.7412 -3.25953,-2.18413 -5.82603,-4.31766 -7.86066,-7.68982 -0.77085,-1.2776 -1.16028,-2.74947 -1.74041,-4.1242 -0.12875,-1.38009 -0.46825,-2.75662 -0.38625,-4.14027 0.26594,-4.48744 2.85639,-8.61337 5.71389,-11.91029 1.10301,-1.27264 2.19027,-2.61296 3.57813,-3.56697 4.30558,-2.95967 8.94119,-5.40794 13.4118,-8.11191 1.55396,-0.66615 3.06052,-1.45611 4.66191,-1.99845 5.01003,-1.69673 10.83171,-2.24592 15.73608,0.1597 0.67135,0.3293 1.21979,0.86529 1.82969,1.29793 0.36184,0.50586 0.80312,0.96344 1.08553,1.51757 1.11401,2.18584 0.39494,4.8694 -0.46493,6.99659 -2.70406,4.71519 -0.49907,1.29476 -11.32974,7.64571 -1.64734,0.96597 -3.74924,0.86518 -5.57409,0.8863 -2.96743,0.005 -5.93543,-0.0226 -8.90227,0.0541 0,0 9.32297,-6.77354 9.32297,-6.77354 z"
       inkscape:connector-curvature="0" />
  </g>
</svg>
