<?xml version="1.0" encoding="UTF-8" standalone="no"?>
<!-- Created with Inkscape (http://www.inkscape.org/) -->

<svg
   xmlns:dc="http://purl.org/dc/elements/1.1/"
   xmlns:cc="http://creativecommons.org/ns#"
   xmlns:rdf="http://www.w3.org/1999/02/22-rdf-syntax-ns#"
   xmlns:svg="http://www.w3.org/2000/svg"
   xmlns="http://www.w3.org/2000/svg"
   xmlns:sodipodi="http://sodipodi.sourceforge.net/DTD/sodipodi-0.dtd"
   xmlns:inkscape="http://www.inkscape.org/namespaces/inkscape"
   width="320"
   height="150"
   id="svg2"
   version="1.1"
   inkscape:version="0.48.3.1 r9886"
   sodipodi:docname="register.svg">
  <defs
     id="defs4" />
  <sodipodi:namedview
     id="base"
     pagecolor="#ffffff"
     bordercolor="#666666"
     borderopacity="1.0"
     inkscape:pageopacity="0.0"
     inkscape:pageshadow="2"
     inkscape:zoom="2.8"
     inkscape:cx="127.49871"
     inkscape:cy="70.728844"
     inkscape:document-units="px"
     inkscape:current-layer="layer1"
     showgrid="false"
     inkscape:window-width="1366"
     inkscape:window-height="706"
     inkscape:window-x="-8"
     inkscape:window-y="-8"
     inkscape:window-maximized="1" />
  <metadata
     id="metadata7">
    <rdf:RDF>
      <cc:Work
         rdf:about="">
        <dc:format>image/svg+xml</dc:format>
        <dc:type
           rdf:resource="http://purl.org/dc/dcmitype/StillImage" />
        <dc:title />
      </cc:Work>
    </rdf:RDF>
  </metadata>
  <g
     inkscape:label="Layer 1"
     inkscape:groupmode="layer"
     id="layer1"
     transform="translate(0,-902.36218)">
    <path
       transform="matrix(0.71794872,0,0,0.71794872,-1.4102566,886.44643)"
       d="m -111.42858,55 c 0,15.385075 -13.59135,27.857143 -30.35714,27.857143 -16.76579,0 -30.35714,-12.472068 -30.35714,-27.857143 0,-15.385075 13.59135,-27.857143 30.35714,-27.857143 16.76579,0 30.35714,12.472068 30.35714,27.857143 z"
       sodipodi:ry="27.857143"
       sodipodi:rx="30.357143"
       sodipodi:cy="55"
       sodipodi:cx="-141.78572"
       id="path3001"
       style="fill:#f2f2f2;fill-opacity:1;fill-rule:evenodd;stroke:none"
       sodipodi:type="arc" />
    <path
       style="fill:#f2f2f2;fill-opacity:1;fill-rule:evenodd;stroke:none"
       d="M -102.84375 35.21875 C -114.00796 35.21875 -123.64993 47.995808 -128.09375 66.4375 L -77.625 66.4375 C -82.068818 47.995808 -91.679544 35.21875 -102.84375 35.21875 z "
       transform="translate(0,902.36218)"
       id="path3005" />
    <path
       style="fill:#999999;fill-opacity:1;fill-rule:evenodd;stroke:none"
       d="m 147.43614,928.53391 c -15.68926,0.72979 -28.13744,12.66817 -28.13744,27.24676 0,9.70495 5.5209,18.20913 13.84605,23.03627 -7.92128,7.35857 -14.33123,19.884 -18.05655,35.34386 l 68.74445,0 c -3.78395,-15.70326 -10.33926,-28.40004 -18.42091,-35.70823 7.98489,-4.88406 13.27925,-13.20544 13.27925,-22.6719 0,-15.04885 -13.31699,-27.24676 -29.71639,-27.24676 -0.51248,0 -1.03234,-0.0236 -1.53846,0 z"
       id="path3044"
       inkscape:connector-curvature="0" />
    <path
       style="fill:#b3b3b3;fill-opacity:1;fill-rule:evenodd;stroke:none"
       d="m 155.62579,932.85887 c -15.59435,0 -28.21842,11.60062 -28.21842,25.91074 0,9.22183 5.25093,17.31074 13.15781,21.90268 -7.53278,6.99722 -13.62332,18.94195 -17.16587,33.64341 l 65.38414,0 c -3.5982,-14.93236 -9.80483,-27.01786 -17.48975,-33.96729 7.58052,-4.64618 12.591,-12.5858 12.591,-21.5788 0,-14.31012 -12.66456,-25.91074 -28.25891,-25.91074 z"
       id="path3012"
       inkscape:connector-curvature="0" />
    <rect
       style="fill:#999999;fill-opacity:1;fill-rule:evenodd;stroke:none"
       id="rect3017"
       width="8.950491"
       height="41.172268"
       x="202.7298"
       y="956.37488"
       ry="2.1900141" />
    <rect
       ry="2.1900141"
       y="-227.7912"
       x="972.48584"
       height="41.172268"
       width="8.950491"
       id="rect3019"
       style="fill:#999999;fill-opacity:1;fill-rule:evenodd;stroke:none"
       transform="matrix(0,1,-1,0,0,0)" />
    <path
       inkscape:connector-curvature="0"
       id="path3002"
       d="m -204.91258,993.07649 165.089846,0 c 9.94127,0 17.94454,8.00331 17.94454,17.94451 l 0,61.0114 c 0,9.9414 -8.00327,17.9448 -17.94454,17.9448 l -165.089846,0 c -9.94129,0 -17.94456,-8.0034 -17.94456,-17.9448 l 0,-61.0114 c 0,-9.9412 8.00327,-17.94451 17.94456,-17.94451 z"
       style="fill:#b3b3b3;fill-opacity:1;fill-rule:evenodd;stroke:none" />
    <g
       id="g3004"
       style="font-size:40px;font-style:normal;font-weight:bold;line-height:125%;letter-spacing:0px;word-spacing:0px;fill:#f2f2f2;fill-opacity:1;stroke:none;font-family:Sans;-inkscape-font-specification:Sans Bold"
       transform="matrix(0.71401638,0,0,0.71401638,-260.2391,1019.7)">
      <path
         inkscape:connector-curvature="0"
         id="path3006"
         style="line-height:129.99999523%;letter-spacing:-4.59105349px;fill:#f2f2f2"
         d="m 69.367187,77.603605 0,-28.632812 12.167969,0 c 3.059878,2.8e-5 5.283183,0.25719 6.669922,0.771484 1.386696,0.51435 2.496721,1.429063 3.330078,2.744141 0.833308,1.315128 1.249974,2.819033 1.25,4.511719 -2.6e-5,2.148456 -0.631536,3.922542 -1.894531,5.322265 -1.263044,1.399754 -3.151063,2.281914 -5.664063,2.646485 1.24998,0.729178 2.28188,1.529959 3.095704,2.402343 0.813779,0.872406 1.910783,2.421883 3.291015,4.648438 l 3.496094,5.585937 -6.914063,0 -4.179687,-6.230468 C 82.531234,69.146583 81.51561,67.743589 80.96875,67.164152 80.421861,66.584736 79.842435,66.187601 79.230469,65.972746 78.618477,65.757914 77.648426,65.650492 76.320312,65.65048 l -1.171875,0 0,11.953125 z m 5.78125,-16.523437 4.277344,0 c 2.773422,1.6e-5 4.505191,-0.117171 5.195313,-0.351563 0.690085,-0.234358 1.230449,-0.638003 1.621093,-1.210937 0.390605,-0.572898 0.585918,-1.289043 0.585938,-2.148438 -2e-5,-0.96352 -0.257182,-1.741514 -0.771484,-2.333984 -0.514342,-0.592425 -1.240253,-0.966773 -2.177735,-1.123047 -0.468767,-0.06508 -1.875015,-0.09763 -4.21875,-0.09766 l -4.511719,0 z" />
      <path
         inkscape:connector-curvature="0"
         id="path3008"
         style="line-height:129.99999523%;letter-spacing:-4.59105349px;fill:#f2f2f2"
         d="m 93.662853,77.603605 0,-28.632812 21.230467,0 0,4.84375 -15.449217,0 0,6.347656 14.374997,0 0,4.824219 -14.374997,0 0,7.792969 15.996097,0 0,4.824218 z" />
      <path
         inkscape:connector-curvature="0"
         id="path3010"
         style="line-height:129.99999523%;letter-spacing:-4.59105349px;fill:#f2f2f2"
         d="m 126.12258,48.970793 5.76172,0 0,18.125 c -2e-5,2.3698 -0.20835,4.192715 -0.625,5.46875 -0.55991,1.66667 -1.57554,3.004559 -3.04687,4.013672 -1.47137,1.009114 -3.41148,1.513671 -5.82032,1.513672 -2.82552,-10e-7 -5,-0.791016 -6.52343,-2.373047 -1.52344,-1.582028 -2.29167,-3.902989 -2.30469,-6.962891 l 5.44922,-0.625 c 0.0651,1.640633 0.30598,2.799486 0.72265,3.476563 0.625,1.02865 1.57552,1.542973 2.85157,1.542968 1.28905,5e-6 2.2005,-0.367833 2.73437,-1.103515 0.53384,-0.735671 0.80077,-2.262362 0.80078,-4.580078 z" />
      <path
         inkscape:connector-curvature="0"
         id="path3013"
         style="line-height:129.99999523%;letter-spacing:-4.59105349px;fill:#f2f2f2"
         d="m 133.46512,77.603605 0,-28.632812 21.23047,0 0,4.84375 -15.44922,0 0,6.347656 14.375,0 0,4.824219 -14.375,0 0,7.792969 15.99609,0 0,4.824218 z" />
      <path
         inkscape:connector-curvature="0"
         id="path3015"
         style="line-height:129.99999523%;letter-spacing:-4.59105349px;fill:#f2f2f2"
         d="m 154.12798,68.287199 5.625,-0.546875 c 0.33853,1.888029 1.02538,3.274746 2.06054,4.160156 1.03515,0.885422 2.43163,1.32813 4.18946,1.328125 1.86196,5e-6 3.26495,-0.393875 4.20898,-1.18164 0.94399,-0.787754 1.416,-1.708977 1.41602,-2.763672 -2e-5,-0.677074 -0.19859,-1.253246 -0.59571,-1.728516 -0.39715,-0.47525 -1.09051,-0.888661 -2.08008,-1.240234 -0.67709,-0.234364 -2.22006,-0.65103 -4.6289,-1.25 -3.09897,-0.768216 -5.27345,-1.712225 -6.52344,-2.832031 -1.75782,-1.575504 -2.63672,-3.496075 -2.63672,-5.761719 0,-1.458311 0.41341,-2.822242 1.24024,-4.091797 0.82681,-1.269505 2.01822,-2.236301 3.57421,-2.900391 1.55599,-0.664033 3.43424,-0.996064 5.63477,-0.996093 3.59373,2.9e-5 6.29881,0.787788 8.11523,2.363281 1.81639,1.575546 2.77016,3.678408 2.86133,6.308594 l -5.78125,0.253906 c -0.24741,-1.471333 -0.77801,-2.529274 -1.59179,-3.173828 -0.81382,-0.644508 -2.03452,-0.966773 -3.66211,-0.966797 -1.6797,2.4e-5 -2.9948,0.345076 -3.94532,1.035156 -0.61198,0.442731 -0.91797,1.035179 -0.91796,1.777344 -1e-5,0.677104 0.28645,1.256531 0.85937,1.738281 0.72916,0.611998 2.49999,1.250019 5.3125,1.914063 2.81248,0.664079 4.89256,1.350928 6.24023,2.060546 1.34764,0.709651 2.40233,1.679702 3.16407,2.910157 0.76169,1.23048 1.14255,2.750661 1.14258,4.560547 -3e-5,1.640631 -0.45576,3.177088 -1.36719,4.609375 -0.91148,1.432294 -2.20054,2.496746 -3.86719,3.193359 -1.66668,0.696614 -3.7435,1.044921 -6.23047,1.044922 -3.6198,-10e-7 -6.39974,-0.836588 -8.33984,-2.509766 -1.94011,-1.673173 -3.09896,-4.111322 -3.47656,-7.314453 z" />
      <path
         inkscape:connector-curvature="0"
         id="path3017"
         style="line-height:129.99999523%;letter-spacing:-4.59105349px;fill:#f2f2f2"
         d="m 184.16582,77.603605 0,-23.789062 -8.49609,0 0,-4.84375 22.75391,0 0,4.84375 -8.47657,0 0,23.789062 z" />
      <path
         inkscape:connector-curvature="0"
         id="path3019"
         style="line-height:129.99999523%;letter-spacing:-4.59105349px;fill:#f2f2f2"
         d="m 197.60211,77.603605 0,-28.632812 12.16797,0 c 3.05988,2.8e-5 5.28318,0.25719 6.66992,0.771484 1.3867,0.51435 2.49672,1.429063 3.33008,2.744141 0.83331,1.315128 1.24997,2.819033 1.25,4.511719 -3e-5,2.148456 -0.63154,3.922542 -1.89453,5.322265 -1.26304,1.399754 -3.15106,2.281914 -5.66406,2.646485 1.24998,0.729178 2.28188,1.529959 3.0957,2.402343 0.81378,0.872406 1.91078,2.421883 3.29102,4.648438 l 3.49609,5.585937 -6.91406,0 -4.17969,-6.230468 c -1.48439,-2.226554 -2.50002,-3.629548 -3.04688,-4.208985 -0.54688,-0.579416 -1.12631,-0.976551 -1.73828,-1.191406 -0.61199,-0.214832 -1.58204,-0.322254 -2.91015,-0.322266 l -1.17188,0 0,11.953125 z m 5.78125,-16.523437 4.27735,0 c 2.77342,1.6e-5 4.50519,-0.117171 5.19531,-0.351563 0.69008,-0.234358 1.23045,-0.638003 1.62109,-1.210937 0.39061,-0.572898 0.58592,-1.289043 0.58594,-2.148438 -2e-5,-0.96352 -0.25718,-1.741514 -0.77149,-2.333984 -0.51434,-0.592425 -1.24025,-0.966773 -2.17773,-1.123047 -0.46877,-0.06508 -1.87502,-0.09763 -4.21875,-0.09766 l -4.51172,0 z" />
      <path
         inkscape:connector-curvature="0"
         id="path3021"
         style="line-height:129.99999523%;letter-spacing:-4.59105349px;fill:#f2f2f2"
         d="m 247.71809,77.603605 -6.28906,0 -2.5,-6.503906 -11.44531,0 -2.36328,6.503906 -6.13281,0 11.15234,-28.632812 6.11328,0 z m -10.64453,-11.328125 -3.94531,-10.625 -3.86719,10.625 z" />
      <path
         inkscape:connector-curvature="0"
         id="path3023"
         style="line-height:129.99999523%;letter-spacing:-4.59105349px;fill:#f2f2f2"
         d="m 264.53329,67.076262 5.60547,1.777343 c -0.8594,3.125006 -2.28843,5.445967 -4.28711,6.962891 -1.99871,1.516927 -4.53452,2.27539 -7.60742,2.275391 -3.80209,-10e-7 -6.92709,-1.298828 -9.375,-3.896485 -2.44792,-2.59765 -3.67187,-6.149079 -3.67187,-10.654297 0,-4.765606 1.23046,-8.466774 3.6914,-11.103515 2.46093,-2.636691 5.69661,-3.955049 9.70703,-3.955078 3.50259,2.9e-5 6.34764,1.035184 8.53516,3.105468 1.30206,1.223983 2.27862,2.981794 2.92969,5.273438 l -5.72266,1.367187 c -0.33856,-1.484354 -1.04494,-2.656228 -2.11914,-3.515625 -1.07424,-0.859351 -2.37957,-1.289038 -3.91601,-1.289062 -2.12241,2.4e-5 -3.84442,0.761742 -5.16602,2.285156 -1.32162,1.523458 -1.98243,3.990903 -1.98242,7.402344 -1e-5,3.619802 0.65103,6.197925 1.95312,7.734375 1.30208,1.536463 2.99478,2.304692 5.07813,2.304687 1.53644,5e-6 2.85805,-0.488276 3.96484,-1.464843 1.10675,-0.976556 1.90102,-2.513013 2.38281,-4.609375 z" />
      <path
         inkscape:connector-curvature="0"
         id="path3025"
         style="line-height:129.99999523%;letter-spacing:-4.59105349px;fill:#f2f2f2"
         d="m 280.8602,48.970793 5.76172,0 0,18.125 c -2e-5,2.3698 -0.20835,4.192715 -0.625,5.46875 -0.55992,1.66667 -1.57554,3.004559 -3.04688,4.013672 -1.47137,1.009114 -3.41147,1.513671 -5.82031,1.513672 -2.82553,-10e-7 -5,-0.791016 -6.52344,-2.373047 -1.52344,-1.582028 -2.29166,-3.902989 -2.30468,-6.962891 l 5.44921,-0.625 c 0.0651,1.640633 0.30599,2.799486 0.72266,3.476563 0.62499,1.02865 1.57551,1.542973 2.85156,1.542968 1.28905,5e-6 2.20051,-0.367833 2.73438,-1.103515 0.53384,-0.735671 0.80077,-2.262362 0.80078,-4.580078 z" />
      <path
         inkscape:connector-curvature="0"
         id="path3027"
         style="line-height:129.99999523%;letter-spacing:-4.59105349px;fill:#f2f2f2"
         d="m 314.02306,77.603605 -6.28907,0 -2.5,-6.503906 -11.44531,0 -2.36328,6.503906 -6.13281,0 11.15234,-28.632812 6.11328,0 z m -10.64454,-11.328125 -3.94531,-10.625 -3.86719,10.625 z" />
    </g>
    <path
       inkscape:connector-curvature="0"
       id="path3029"
       d="m -180.85425,1000.6722 c -8.89678,0.4139 -15.95565,7.1837 -15.95565,15.4506 0,5.5033 3.13068,10.3257 7.85155,13.063 -4.49185,4.1727 -8.12668,11.2754 -10.23916,20.0421 l 38.9823,0 c -2.14573,-8.9047 -5.86299,-16.1046 -10.44578,-20.2487 4.52792,-2.7696 7.53015,-7.4883 7.53015,-12.8564 0,-8.5336 -7.55155,-15.4506 -16.85101,-15.4506 -0.29061,0 -0.5854,-0.013 -0.8724,0 z"
       style="fill:#999999;fill-opacity:1;fill-rule:evenodd;stroke:none" />
    <path
       inkscape:connector-curvature="0"
       id="path3031"
       d="m -176.21022,1002.4104 c -8.84295,0 -16.00157,6.5783 -16.00157,14.693 0,5.2294 2.9776,9.8163 7.46128,12.4202 -4.27155,3.9678 -7.72525,10.7412 -9.7341,19.0779 l 37.07681,0 c -2.0404,-8.4676 -5.55994,-15.3208 -9.91776,-19.2616 4.29862,-2.6346 7.13987,-7.1369 7.13987,-12.2365 0,-8.1147 -7.18158,-14.693 -16.02453,-14.693 z"
       style="fill:#f2f2f2;fill-opacity:1;fill-rule:evenodd;stroke:none" />
    <rect
       ry="1.6189071"
       y="1013.0169"
       x="-146.92824"
       height="30.435453"
       width="6.6164017"
       id="rect3033"
       style="fill:#f2f2f2;fill-opacity:1;fill-rule:evenodd;stroke:none" />
    <rect
       transform="matrix(0,1,-1,0,0,0)"
       style="fill:#f2f2f2;fill-opacity:1;fill-rule:evenodd;stroke:none"
       id="rect3035"
       width="6.6164017"
       height="30.435453"
       x="1024.9265"
       y="128.4023"
       ry="1.6189071" />
  </g>
</svg>
