<?xml version="1.0" encoding="UTF-8" standalone="no"?>
<!-- Created with Inkscape (http://www.inkscape.org/) -->

<svg
   xmlns:dc="http://purl.org/dc/elements/1.1/"
   xmlns:cc="http://creativecommons.org/ns#"
   xmlns:rdf="http://www.w3.org/1999/02/22-rdf-syntax-ns#"
   xmlns:svg="http://www.w3.org/2000/svg"
   xmlns="http://www.w3.org/2000/svg"
   xmlns:sodipodi="http://sodipodi.sourceforge.net/DTD/sodipodi-0.dtd"
   xmlns:inkscape="http://www.inkscape.org/namespaces/inkscape"
   width="320"
   height="150"
   id="svg2"
   version="1.1"
   inkscape:version="0.48.3.1 r9886"
   sodipodi:docname="share.svg">
  <defs
     id="defs4" />
  <sodipodi:namedview
     id="base"
     pagecolor="#ffffff"
     bordercolor="#666666"
     borderopacity="1.0"
     inkscape:pageopacity="0.0"
     inkscape:pageshadow="2"
     inkscape:zoom="1.979899"
     inkscape:cx="114.57695"
     inkscape:cy="34.743945"
     inkscape:document-units="px"
     inkscape:current-layer="layer1"
     showgrid="false"
     inkscape:window-width="1366"
     inkscape:window-height="706"
     inkscape:window-x="-8"
     inkscape:window-y="-8"
     inkscape:window-maximized="1" />
  <metadata
     id="metadata7">
    <rdf:RDF>
      <cc:Work
         rdf:about="">
        <dc:format>image/svg+xml</dc:format>
        <dc:type
           rdf:resource="http://purl.org/dc/dcmitype/StillImage" />
        <dc:title />
      </cc:Work>
    </rdf:RDF>
  </metadata>
  <g
     inkscape:label="Layer 1"
     inkscape:groupmode="layer"
     id="layer1"
     transform="translate(0,-902.36218)">
    <path
       style="fill:#b3b3b3;fill-opacity:1;fill-rule:evenodd;stroke:none"
       d="m -269.85968,973.79078 224.719403,0 c 13.53201,0 24.42602,10.89401 24.42602,24.42602 l 0,83.0484 c 0,13.5321 -10.89401,24.4263 -24.42602,24.4263 l -224.719403,0 c -13.53202,0 -24.42603,-10.8942 -24.42603,-24.4263 l 0,-83.0484 c 0,-13.53201 10.89401,-24.42602 24.42603,-24.42602 z"
       id="rect2985"
       inkscape:connector-curvature="0" />
    <flowRoot
       xml:space="preserve"
       id="flowRoot3021"
       style="font-size:40px;font-style:normal;font-weight:normal;line-height:125%;letter-spacing:0px;word-spacing:0px;fill:#000000;fill-opacity:1;stroke:none;font-family:Sans"
       transform="matrix(0.88432864,0,0,0.88432864,-258.37992,856.44349)"><flowRegion
         id="flowRegion3023"><rect
           id="rect3025"
           width="202.85715"
           height="49.285713"
           x="66.428574"
           y="42.857143" /></flowRegion><flowPara
         id="flowPara3027">Rejestracja</flowPara></flowRoot>    <g
       transform="matrix(1.2096352,0,0,1.2096352,-356.55437,957.87848)"
       style="font-size:40px;font-style:normal;font-weight:normal;line-height:125%;letter-spacing:0px;word-spacing:0px;fill:#ffffff;fill-opacity:1;stroke:none;font-family:Sans"
       id="flowRoot3029">
      <path
         d="m 69.582031,76.266689 0,-28.632812 12.695313,0 c 2.552065,2.8e-5 4.492167,0.257189 5.820312,0.771484 1.328102,0.51435 2.389299,1.422552 3.183594,2.724609 0.794245,1.302107 1.19138,2.740908 1.191406,4.316407 -2.6e-5,2.031268 -0.657577,3.743506 -1.972656,5.136718 -1.315127,1.393244 -3.346375,2.27866 -6.09375,2.65625 1.002585,0.481784 1.764303,0.957044 2.285156,1.425782 1.10675,1.015635 2.154926,2.285165 3.144531,3.808593 l 4.980469,7.792969 -4.765625,0 -3.789062,-5.957031 C 85.154929,68.590915 84.243472,67.275813 83.527344,66.364345 82.811182,65.452898 82.169906,64.814878 81.603516,64.450283 81.037095,64.085712 80.460923,63.831806 79.875,63.688564 79.445299,63.597431 78.742175,63.551858 77.765625,63.551845 l -4.394531,0 0,12.714844 z m 3.789063,-15.996094 8.144531,0 c 1.731754,1.6e-5 3.085919,-0.17902 4.0625,-0.537109 0.976542,-0.358056 1.718729,-0.930972 2.226562,-1.71875 0.507791,-0.787741 0.761697,-1.64386 0.761719,-2.568359 -2.2e-5,-1.354145 -0.491558,-2.467425 -1.474609,-3.339844 -0.983093,-0.872371 -2.535826,-1.308568 -4.658203,-1.308594 l -9.0625,0 z"
         id="path3806"
         inkscape:connector-curvature="0"
         style="fill:#ffffff" />
      <path
         d="m 112.17969,69.587002 3.63281,0.449218 c -0.57294,2.1224 -1.63413,3.769534 -3.18359,4.941407 -1.5495,1.171875 -3.52866,1.757812 -5.9375,1.757812 -3.03387,0 -5.43946,-0.934244 -7.216801,-2.802734 -1.777346,-1.868486 -2.666017,-4.488926 -2.666015,-7.861328 -2e-6,-3.48957 0.898435,-6.197901 2.695312,-8.125 1.796874,-1.927064 4.127594,-2.890604 6.992184,-2.890625 2.77343,2.1e-5 5.03905,0.94403 6.79688,2.832031 1.75779,1.888037 2.6367,4.544284 2.63672,7.96875 -2e-5,0.208343 -0.007,0.520843 -0.0195,0.9375 l -15.46875,0 c 0.1302,2.278653 0.77473,4.023443 1.93359,5.234375 1.15885,1.21094 2.60416,1.816408 4.33594,1.816406 1.28905,2e-6 2.38931,-0.338539 3.30078,-1.015625 0.91144,-0.677079 1.6341,-1.757807 2.16797,-3.242187 z m -11.54297,-5.683594 11.58203,0 c -0.15627,-1.744778 -0.59897,-3.05337 -1.32812,-3.925781 -1.11981,-1.354149 -2.57163,-2.031232 -4.35547,-2.03125 -1.6146,1.8e-5 -2.97202,0.540382 -4.07227,1.621093 -1.10027,1.080745 -1.70899,2.526056 -1.82617,4.335938 z"
         id="path3808"
         inkscape:connector-curvature="0"
         style="fill:#ffffff" />
      <path
         d="m 120.22656,51.715908 0,-4.082031 3.51563,0 0,4.082031 z m -4.45312,32.597656 0.66406,-2.988281 c 0.70313,0.182286 1.25651,0.273432 1.66016,0.273437 0.71614,-5e-6 1.24999,-0.237635 1.60156,-0.71289 0.35156,-0.475265 0.52734,-1.663415 0.52734,-3.564453 l 0,-21.796875 3.51563,0 0,21.875 c -10e-6,2.552079 -0.33204,4.329421 -0.9961,5.332031 -0.84635,1.302075 -2.2526,1.953116 -4.21875,1.953125 -0.95052,-9e-6 -1.86848,-0.123706 -2.7539,-0.371094 z"
         id="path3810"
         inkscape:connector-curvature="0"
         style="fill:#ffffff" />
      <path
         d="m 143.35156,69.587002 3.63281,0.449218 c -0.57293,2.1224 -1.63413,3.769534 -3.18359,4.941407 -1.54949,1.171875 -3.52866,1.757812 -5.9375,1.757812 -3.03386,0 -5.43946,-0.934244 -7.2168,-2.802734 -1.77734,-1.868486 -2.66601,-4.488926 -2.66601,-7.861328 0,-3.48957 0.89843,-6.197901 2.69531,-8.125 1.79687,-1.927064 4.1276,-2.890604 6.99219,-2.890625 2.77342,2.1e-5 5.03905,0.94403 6.79687,2.832031 1.7578,1.888037 2.6367,4.544284 2.63672,7.96875 -2e-5,0.208343 -0.007,0.520843 -0.0195,0.9375 l -15.46875,0 c 0.1302,2.278653 0.77473,4.023443 1.93359,5.234375 1.15885,1.21094 2.60416,1.816408 4.33594,1.816406 1.28905,2e-6 2.38931,-0.338539 3.30078,-1.015625 0.91145,-0.677079 1.6341,-1.757807 2.16797,-3.242187 z m -11.54297,-5.683594 11.58203,0 c -0.15626,-1.744778 -0.59897,-3.05337 -1.32812,-3.925781 -1.11981,-1.354149 -2.57163,-2.031232 -4.35547,-2.03125 -1.61459,1.8e-5 -2.97201,0.540382 -4.07226,1.621093 -1.10027,1.080745 -1.70899,2.526056 -1.82618,4.335938 z"
         id="path3812"
         inkscape:connector-curvature="0"
         style="fill:#ffffff" />
      <path
         d="m 150.01172,70.075283 3.47656,-0.546875 c 0.19531,1.393234 0.73893,2.460942 1.63086,3.203125 0.89192,0.74219 2.13866,1.113283 3.74023,1.113281 1.61458,2e-6 2.81249,-0.328773 3.59375,-0.986328 0.78124,-0.657548 1.17187,-1.429032 1.17188,-2.314453 -1e-5,-0.794264 -0.34507,-1.419264 -1.03516,-1.875 -0.48178,-0.312492 -1.6797,-0.709627 -3.59375,-1.191406 -2.57813,-0.651033 -4.36524,-1.214183 -5.36132,-1.689454 -0.9961,-0.475249 -1.75131,-1.1328 -2.26563,-1.972656 -0.51432,-0.83983 -0.77149,-1.767564 -0.77148,-2.783203 -1e-5,-0.924463 0.21158,-1.780582 0.63476,-2.568359 0.42318,-0.787742 0.99935,-1.442038 1.72852,-1.962891 0.54687,-0.403626 1.29231,-0.745422 2.23633,-1.025391 0.944,-0.279926 1.95637,-0.4199 3.0371,-0.419921 1.6276,2.1e-5 3.05663,0.234396 4.28711,0.703125 1.23046,0.46877 2.13866,1.103535 2.72461,1.904296 0.58592,0.800799 0.98957,1.871762 1.21094,3.212891 l -3.4375,0.46875 c -0.15626,-1.067692 -0.60874,-1.901025 -1.35742,-2.5 -0.74871,-0.59894 -1.80665,-0.898419 -3.17383,-0.898437 -1.61459,1.8e-5 -2.76693,0.266945 -3.45703,0.800781 -0.69011,0.533871 -1.03516,1.15887 -1.03516,1.875 0,0.455744 0.14323,0.8659 0.42969,1.230469 0.28645,0.377618 0.73567,0.690117 1.34766,0.9375 0.35155,0.130221 1.38671,0.4297 3.10547,0.898437 2.48696,0.664074 4.22199,1.207694 5.20507,1.630859 0.98306,0.423188 1.75454,1.038422 2.31446,1.845704 0.55988,0.8073 0.83982,1.809903 0.83984,3.007812 -2e-5,1.17188 -0.34181,2.275395 -1.02539,3.310547 -0.68361,1.035158 -1.66994,1.835938 -2.95898,2.402344 -1.28908,0.566406 -2.74741,0.849609 -4.375,0.849609 -2.69532,0 -4.74936,-0.559896 -6.16211,-1.679687 -1.41277,-1.11979 -2.31446,-2.779944 -2.70508,-4.980469 z"
         id="path3814"
         inkscape:connector-curvature="0"
         style="fill:#ffffff" />
      <path
         d="m 179.09375,73.122158 0.50781,3.105469 c -0.98959,0.208333 -1.87501,0.312499 -2.65625,0.3125 -1.27605,-10e-7 -2.26563,-0.201823 -2.96875,-0.605469 -0.70313,-0.403645 -1.19792,-0.934244 -1.48437,-1.591797 -0.28646,-0.65755 -0.42969,-2.041012 -0.42969,-4.150391 l 0,-11.933593 -2.57813,0 0,-2.734375 2.57813,0 0,-5.136719 3.49609,-2.109375 0,7.246094 3.53516,0 0,2.734375 -3.53516,0 0,12.128906 c 0,1.002609 0.0618,1.647139 0.18555,1.933594 0.12369,0.286462 0.32551,0.514326 0.60547,0.683593 0.27994,0.169274 0.68033,0.25391 1.20117,0.253907 0.39062,3e-6 0.90494,-0.04557 1.54297,-0.136719 z"
         id="path3816"
         inkscape:connector-curvature="0"
         style="fill:#ffffff" />
      <path
         d="m 182.47266,76.266689 0,-20.742187 3.16406,0 0,3.144531 c 0.80728,-1.471335 1.55273,-2.441386 2.23633,-2.910156 0.68358,-0.468729 1.43553,-0.703104 2.25586,-0.703125 1.18488,2.1e-5 2.38931,0.377625 3.61328,1.132812 l -1.21094,3.261719 c -0.85939,-0.507795 -1.71876,-0.761701 -2.57813,-0.761719 -0.76823,1.8e-5 -1.45834,0.231137 -2.07031,0.693359 -0.61198,0.462256 -1.04818,1.103532 -1.30859,1.923829 -0.39063,1.250013 -0.58594,2.617199 -0.58594,4.101562 l 0,10.859375 z"
         id="path3818"
         inkscape:connector-curvature="0"
         style="fill:#ffffff" />
      <path
         d="m 209.40625,73.708095 c -1.3021,1.106773 -2.55535,1.888022 -3.75977,2.34375 -1.20443,0.455729 -2.49675,0.683594 -3.87695,0.683594 -2.27865,0 -4.02995,-0.55664 -5.25391,-1.669922 -1.22396,-1.113279 -1.83593,-2.535803 -1.83593,-4.267578 0,-1.015618 0.23112,-1.943352 0.69336,-2.783203 0.46223,-0.839835 1.0677,-1.513662 1.8164,-2.021484 0.7487,-0.507802 1.59179,-0.891916 2.5293,-1.152344 0.6901,-0.18228 1.73176,-0.358061 3.125,-0.527344 2.83853,-0.338529 4.92837,-0.742175 6.26953,-1.210937 0.013,-0.481758 0.0195,-0.787747 0.0195,-0.917969 -1e-5,-1.432276 -0.33204,-2.44139 -0.99609,-3.027344 -0.89845,-0.794253 -2.23309,-1.191388 -4.00391,-1.191406 -1.65365,1.8e-5 -2.87435,0.289731 -3.66211,0.86914 -0.78776,0.579444 -1.37045,1.604834 -1.74804,3.076172 l -3.4375,-0.46875 c 0.31249,-1.471338 0.82682,-2.659487 1.54296,-3.564453 0.71615,-0.904928 1.7513,-1.601542 3.10547,-2.089844 1.35416,-0.48826 2.92317,-0.7324 4.70703,-0.732421 1.77083,2.1e-5 3.20963,0.208354 4.31641,0.625 1.10676,0.416686 1.92056,0.940774 2.44141,1.572265 0.52081,0.631529 0.8854,1.429054 1.09375,2.392578 0.11717,0.598975 0.17576,1.679703 0.17578,3.242188 l 0,4.6875 c -2e-5,3.268234 0.0748,5.33529 0.22461,6.201172 0.14972,0.865887 0.44594,1.695964 0.88867,2.490234 l -3.67188,0 c -0.36459,-0.729166 -0.59897,-1.58203 -0.70312,-2.558594 z m -0.29297,-7.851562 c -1.27606,0.520843 -3.19012,0.963551 -5.74219,1.328125 -1.44532,0.208342 -2.46745,0.442717 -3.0664,0.703125 -0.59897,0.260425 -1.06121,0.641284 -1.38672,1.142578 -0.32553,0.501309 -0.48829,1.057949 -0.48828,1.669922 -1e-5,0.937504 0.35481,1.718754 1.06445,2.34375 0.70963,0.625002 1.74804,0.937502 3.11523,0.9375 1.35416,2e-6 2.55859,-0.296222 3.61329,-0.888672 1.05467,-0.592444 1.82941,-1.40299 2.32421,-2.431641 0.37759,-0.794264 0.5664,-1.966138 0.56641,-3.515625 z"
         id="path3820"
         inkscape:connector-curvature="0"
         style="fill:#ffffff" />
      <path
         d="m 231.67187,68.669033 3.45704,0.449219 c -0.37763,2.382817 -1.34442,4.248049 -2.90039,5.595703 -1.55601,1.347656 -3.46681,2.021484 -5.73243,2.021484 -2.83855,0 -5.12044,-0.927734 -6.8457,-2.783203 -1.72526,-1.855465 -2.58789,-4.514967 -2.58789,-7.978516 0,-2.23957 0.37109,-4.199204 1.11328,-5.878906 0.74219,-1.67967 1.87174,-2.939434 3.38867,-3.779297 1.51692,-0.839823 3.16731,-1.259744 4.95117,-1.259765 2.2526,2.1e-5 4.09504,0.569682 5.52735,1.708984 1.43227,1.139341 2.35024,2.757178 2.7539,4.853516 l -3.41796,0.527343 c -0.32554,-1.393213 -0.90171,-2.441389 -1.72852,-3.144531 -0.82684,-0.703107 -1.82618,-1.054669 -2.99805,-1.054687 -1.77084,1.8e-5 -3.20964,0.634783 -4.3164,1.904296 -1.10678,1.269547 -1.66016,3.278008 -1.66016,6.025391 0,2.786466 0.53385,4.811204 1.60156,6.074219 1.0677,1.263024 2.46093,1.894533 4.17969,1.894531 1.3802,2e-6 2.53254,-0.423174 3.45703,-1.269531 0.92447,-0.84635 1.5104,-2.148432 1.75781,-3.90625 z"
         id="path3822"
         inkscape:connector-curvature="0"
         style="fill:#ffffff" />
      <path
         d="m 238.11719,51.715908 0,-4.082031 3.51562,0 0,4.082031 z m -4.45313,32.597656 0.66406,-2.988281 c 0.70313,0.182286 1.25652,0.273432 1.66016,0.273437 0.71615,-5e-6 1.25,-0.237635 1.60156,-0.71289 0.35156,-0.475265 0.52734,-1.663415 0.52735,-3.564453 l 0,-21.796875 3.51562,0 0,21.875 c 0,2.552079 -0.33203,4.329421 -0.99609,5.332031 -0.84636,1.302075 -2.25261,1.953116 -4.21875,1.953125 -0.95052,-9e-6 -1.86849,-0.123706 -2.75391,-0.371094 z"
         id="path3824"
         inkscape:connector-curvature="0"
         style="fill:#ffffff" />
      <path
         d="m 260.57812,73.708095 c -1.30209,1.106773 -2.55535,1.888022 -3.75976,2.34375 -1.20444,0.455729 -2.49676,0.683594 -3.87695,0.683594 -2.27866,0 -4.02996,-0.55664 -5.25391,-1.669922 -1.22396,-1.113279 -1.83594,-2.535803 -1.83594,-4.267578 0,-1.015618 0.23112,-1.943352 0.69336,-2.783203 0.46224,-0.839835 1.06771,-1.513662 1.81641,-2.021484 0.74869,-0.507802 1.59179,-0.891916 2.52929,-1.152344 0.6901,-0.18228 1.73177,-0.358061 3.125,-0.527344 2.83853,-0.338529 4.92838,-0.742175 6.26954,-1.210937 0.013,-0.481758 0.0195,-0.787747 0.0195,-0.917969 -2e-5,-1.432276 -0.33205,-2.44139 -0.9961,-3.027344 -0.89845,-0.794253 -2.23308,-1.191388 -4.0039,-1.191406 -1.65366,1.8e-5 -2.87436,0.289731 -3.66211,0.86914 -0.78777,0.579444 -1.37045,1.604834 -1.74805,3.076172 l -3.4375,-0.46875 c 0.3125,-1.471338 0.82682,-2.659487 1.54297,-3.564453 0.71614,-0.904928 1.7513,-1.601542 3.10547,-2.089844 1.35416,-0.48826 2.92317,-0.7324 4.70703,-0.732421 1.77082,2.1e-5 3.20962,0.208354 4.31641,0.625 1.10675,0.416686 1.92055,0.940774 2.4414,1.572265 0.52082,0.631529 0.8854,1.429054 1.09375,2.392578 0.11717,0.598975 0.17576,1.679703 0.17578,3.242188 l 0,4.6875 c -2e-5,3.268234 0.0749,5.33529 0.22461,6.201172 0.14972,0.865887 0.44595,1.695964 0.88867,2.490234 l -3.67187,0 c -0.3646,-0.729166 -0.59897,-1.58203 -0.70313,-2.558594 z m -0.29296,-7.851562 c -1.27606,0.520843 -3.19012,0.963551 -5.74219,1.328125 -1.44532,0.208342 -2.46746,0.442717 -3.06641,0.703125 -0.59896,0.260425 -1.0612,0.641284 -1.38672,1.142578 -0.32552,0.501309 -0.48828,1.057949 -0.48828,1.669922 0,0.937504 0.35481,1.718754 1.06446,2.34375 0.70962,0.625002 1.74803,0.937502 3.11523,0.9375 1.35416,2e-6 2.55858,-0.296222 3.61328,-0.888672 1.05467,-0.592444 1.82941,-1.40299 2.32422,-2.431641 0.37759,-0.794264 0.56639,-1.966138 0.56641,-3.515625 z"
         id="path3826"
         inkscape:connector-curvature="0"
         style="fill:#ffffff" />
    </g>
    <rect
       style="fill:#999999;fill-opacity:1;fill-rule:evenodd;stroke:none"
       id="rect3828"
       width="50"
       height="127.14286"
       x="-279.28571"
       y="787.36212"
       ry="15.329281" />
    <rect
       ry="15.329281"
       y="-317.85715"
       x="-875.93353"
       height="127.14286"
       width="50"
       id="rect3830"
       style="fill:#999999;fill-opacity:1;fill-rule:evenodd;stroke:none"
       transform="matrix(0,-1,1,0,0,0)" />
    <path
       transform="matrix(0.94355436,-0.09702609,0.09702609,0.94355436,-67.749738,883.63345)"
       d="m 200.0102,102.01775 a 29.294424,29.294424 0 1 1 -58.58885,0 29.294424,29.294424 0 1 1 58.58885,0 z"
       sodipodi:ry="29.294424"
       sodipodi:rx="29.294424"
       sodipodi:cy="102.01775"
       sodipodi:cx="170.71577"
       id="path2999"
       style="fill:#ececec;fill-opacity:1;fill-rule:evenodd;stroke:none"
       sodipodi:type="arc" />
    <path
       sodipodi:type="arc"
       style="fill:#cccccc;fill-opacity:1;fill-rule:evenodd;stroke:none"
       id="path3001"
       sodipodi:cx="170.71577"
       sodipodi:cy="102.01775"
       sodipodi:rx="29.294424"
       sodipodi:ry="29.294424"
       d="m 200.0102,102.01775 a 29.294424,29.294424 0 1 1 -58.58885,0 29.294424,29.294424 0 1 1 58.58885,0 z"
       transform="matrix(0.94355436,-0.09702609,0.09702609,0.94355436,40.430963,872.50919)" />
    <rect
       ry="10.7793"
       y="957.81635"
       x="-3.9974527"
       height="21.558599"
       width="99.169556"
       id="rect3003"
       style="fill:#cccccc;fill-opacity:1;fill-rule:evenodd;stroke:none"
       transform="matrix(0.99475452,-0.10229102,0.10229102,0.99475452,0,0)" />
    <path
       sodipodi:type="arc"
       style="fill:#999999;fill-opacity:1;fill-rule:evenodd;stroke:none"
       id="path3005"
       sodipodi:cx="170.71577"
       sodipodi:cy="102.01775"
       sodipodi:rx="29.294424"
       sodipodi:ry="29.294424"
       d="m 200.0102,102.01775 a 29.294424,29.294424 0 1 1 -58.58885,0 29.294424,29.294424 0 1 1 58.58885,0 z"
       transform="matrix(0.86565521,0.38775016,-0.38775016,0.86565521,-4.933845,808.45409)" />
    <path
       transform="matrix(0.86565521,0.38775016,-0.38775016,0.86565521,94.315537,852.91058)"
       d="m 200.0102,102.01775 a 29.294424,29.294424 0 1 1 -58.58885,0 29.294424,29.294424 0 1 1 58.58885,0 z"
       sodipodi:ry="29.294424"
       sodipodi:rx="29.294424"
       sodipodi:cy="102.01775"
       sodipodi:cx="170.71577"
       id="path3007"
       style="fill:#999999;fill-opacity:1;fill-rule:evenodd;stroke:none"
       sodipodi:type="arc" />
    <rect
       transform="matrix(0.91262819,0.40879064,-0.40879064,0.91262819,0,0)"
       style="fill:#999999;fill-opacity:1;fill-rule:evenodd;stroke:none"
       id="rect3009"
       width="99.169548"
       height="21.558599"
       x="479.77039"
       y="825.58301"
       ry="10.7793" />
  </g>
</svg>
