<?xml version="1.0" encoding="UTF-8" standalone="no"?>
<!-- Created with Inkscape (http://www.inkscape.org/) -->

<svg
   xmlns:dc="http://purl.org/dc/elements/1.1/"
   xmlns:cc="http://creativecommons.org/ns#"
   xmlns:rdf="http://www.w3.org/1999/02/22-rdf-syntax-ns#"
   xmlns:svg="http://www.w3.org/2000/svg"
   xmlns="http://www.w3.org/2000/svg"
   xmlns:sodipodi="http://sodipodi.sourceforge.net/DTD/sodipodi-0.dtd"
   xmlns:inkscape="http://www.inkscape.org/namespaces/inkscape"
   width="500"
   height="150"
   id="svg3020"
   version="1.1"
   inkscape:version="0.48.3.1 r9886"
   sodipodi:docname="share2.svg">
  <defs
     id="defs3022" />
  <sodipodi:namedview
     id="base"
     pagecolor="#ffffff"
     bordercolor="#666666"
     borderopacity="1.0"
     inkscape:pageopacity="0.0"
     inkscape:pageshadow="2"
     inkscape:zoom="1.979899"
     inkscape:cx="229.77601"
     inkscape:cy="83.508768"
     inkscape:document-units="px"
     inkscape:current-layer="layer1"
     showgrid="false"
     inkscape:window-width="1366"
     inkscape:window-height="706"
     inkscape:window-x="-8"
     inkscape:window-y="-8"
     inkscape:window-maximized="1" />
  <metadata
     id="metadata3025">
    <rdf:RDF>
      <cc:Work
         rdf:about="">
        <dc:format>image/svg+xml</dc:format>
        <dc:type
           rdf:resource="http://purl.org/dc/dcmitype/StillImage" />
        <dc:title />
      </cc:Work>
    </rdf:RDF>
  </metadata>
  <g
     inkscape:label="Layer 1"
     inkscape:groupmode="layer"
     id="layer1"
     transform="translate(0,-902.36218)">
    <rect
       style="fill:#b3b3b3;fill-opacity:1;fill-rule:evenodd;stroke:none"
       id="rect3050"
       width="326.03668"
       height="91.418839"
       x="93.43911"
       y="926.59814"
       ry="16.069714" />
    <g
       transform="matrix(0.70703133,0,0,0.70703133,62.728098,931.60306)"
       style="font-size:40px;font-style:normal;font-weight:normal;line-height:74.00000095%;letter-spacing:0px;word-spacing:0px;fill:#ececec;fill-opacity:1;stroke:none;font-family:Sans"
       id="flowRoot3040">
      <path
         d="m 83.484375,-0.26732817 19.019535,0 c 4.28903,5.154e-5 7.55856,0.32817621 9.80859,0.984375 3.0234,0.89067467 5.61324,2.47270437 7.76953,4.74609377 2.15621,2.273481 3.79683,5.0566814 4.92188,8.3496094 1.12495,3.293003 1.68745,7.353546 1.6875,12.181641 -5e-5,4.242208 -0.5274,7.898454 -1.58203,10.96875 -1.28911,3.75001 -3.12895,6.785163 -5.51954,9.105468 -1.80472,1.757816 -4.24222,3.128909 -7.3125,4.113282 -2.2969,0.726562 -5.36721,1.089843 -9.21093,1.089843 l -19.582035,0 z m 10.40625,8.71874997 0,34.1367192 7.769535,0 c 2.90622,8e-6 5.00387,-0.164054 6.29297,-0.492188 1.68746,-0.421865 3.08785,-1.136708 4.20117,-2.144531 1.11324,-1.0078 2.02145,-2.666002 2.72461,-4.97461 0.70308,-2.308575 1.05465,-5.455056 1.05468,-9.439453 -3e-5,-3.984345 -0.3516,-7.042936 -1.05468,-9.175781 -0.70316,-2.132775 -1.68754,-3.796836 -2.95313,-4.992187 -1.26566,-1.195272 -2.87112,-2.0038648 -4.8164,-2.4257817 -1.45316,-0.3280823 -4.30081,-0.4921446 -8.542974,-0.4921875 z"
         style="font-size:72px;font-weight:bold;line-height:74.00000095%;fill:#ececec;-inkscape-font-specification:Sans Bold"
         id="path3078"
         inkscape:connector-curvature="0" />
      <path
         d="m 131.08594,51.271734 0,-9.386718 27.07031,-33.4335942 -24.01172,0 0,-8.71874997 37.72266,0 0,8.08593747 -28.23047,34.7695317 29.32031,0 0,8.683593 z"
         style="font-size:72px;font-weight:bold;line-height:74.00000095%;fill:#ececec;-inkscape-font-specification:Sans Bold"
         id="path3080"
         inkscape:connector-curvature="0" />
      <path
         d="m 179.25,51.271734 0,-51.53906217 10.40625,0 0,51.53906217 z"
         style="font-size:72px;font-weight:bold;line-height:74.00000095%;fill:#ececec;-inkscape-font-specification:Sans Bold"
         id="path3082"
         inkscape:connector-curvature="0" />
      <path
         d="m 199.53516,51.271734 0,-51.53906217 38.21484,0 0,8.71874997 -27.80859,0 0,11.4257812 25.875,0 0,8.683594 -25.875,0 0,14.027344 28.79296,0 0,8.683593 z"
         style="font-size:72px;font-weight:bold;line-height:74.00000095%;fill:#ececec;-inkscape-font-specification:Sans Bold"
         id="path3084"
         inkscape:connector-curvature="0" />
      <path
         d="m 247.91016,51.271734 0,-51.11718717 10.40625,0 0,42.43359417 25.875,0 0,8.683593 z"
         style="font-size:72px;font-weight:bold;line-height:74.00000095%;fill:#ececec;-inkscape-font-specification:Sans Bold"
         id="path3086"
         inkscape:connector-curvature="0" />
      <path
         d="m 80.882812,87.782202 10.125,-0.984375 c 0.609362,3.398452 1.845689,5.894543 3.708985,7.488281 1.863263,1.593759 4.376932,2.390633 7.541013,2.390625 3.35154,8e-6 5.87693,-0.708976 7.57617,-2.126953 1.69919,-1.417957 2.5488,-3.076159 2.54883,-4.974609 -3e-5,-1.218734 -0.35745,-2.255843 -1.07226,-3.111329 -0.71488,-0.855449 -1.96292,-1.599589 -3.74414,-2.232421 -1.21878,-0.421855 -3.99612,-1.171854 -8.332035,-2.25 -5.57814,-1.382789 -9.492199,-3.082006 -11.742188,-5.097657 -3.164068,-2.835907 -4.746098,-6.292934 -4.746093,-10.371093 -5e-6,-2.62496 0.744135,-5.080035 2.232422,-7.365235 1.488273,-2.285108 3.632802,-4.025341 6.433593,-5.220703 2.800766,-1.195261 6.181622,-1.792916 10.142581,-1.792969 6.46872,5.3e-5 11.33785,1.41802 14.60742,4.253907 3.26949,2.835982 4.98628,6.621135 5.15039,11.355468 l -10.40625,0.457032 c -0.44534,-2.648399 -1.40042,-4.552694 -2.86523,-5.712891 -1.46488,-1.160113 -3.66214,-1.740191 -6.5918,-1.740234 -3.023459,4.3e-5 -5.390644,0.621137 -7.101564,1.863281 -1.101577,0.796916 -1.652358,1.863321 -1.652344,3.199219 -1.4e-5,1.218787 0.515611,2.261755 1.546875,3.128906 1.312483,1.101597 4.49998,2.250033 9.562503,3.445312 5.06247,1.195344 8.8066,2.431671 11.23242,3.708985 2.42574,1.277371 4.32418,3.023463 5.69531,5.238281 1.37105,2.214865 2.0566,4.95119 2.05664,8.208984 -4e-5,2.953137 -0.82035,5.71876 -2.46093,8.296875 -1.64067,2.578131 -3.96098,4.494141 -6.96094,5.748051 -3.00003,1.2539 -6.73831,1.88085 -11.21485,1.88086 -6.515639,-1e-5 -11.51954,-1.50586 -15.011715,-4.51758 -3.492193,-3.011715 -5.578128,-7.400382 -6.257813,-13.166018 z"
         style="font-size:72px;font-weight:bold;line-height:74.00000095%;fill:#ececec;-inkscape-font-specification:Sans Bold"
         id="path3088"
         inkscape:connector-curvature="0" />
      <path
         d="m 131.29687,104.55173 0,-51.539059 10.40625,0 0,51.539059 z"
         style="font-size:72px;font-weight:bold;line-height:74.00000095%;fill:#ececec;-inkscape-font-specification:Sans Bold"
         id="path3090"
         inkscape:connector-curvature="0" />
      <path
         d="m 151.58203,104.55173 0,-51.539059 38.21484,0 0,8.71875 -27.80859,0 0,11.425781 25.875,0 0,8.683594 -25.875,0 0,14.027343 28.79297,0 0,8.683591 z m 36.5625,0 c -0.44535,0.32813 -0.84965,0.70899 -1.21289,1.14258 -0.36332,0.43359 -0.67387,0.89648 -0.93164,1.38867 -0.25785,0.49219 -0.45707,0.99023 -0.59766,1.49414 -0.14066,0.50391 -0.21097,0.99023 -0.21093,1.45899 -4e-5,0.77343 0.20504,1.42382 0.61523,1.95117 0.41012,0.52734 1.09566,0.79101 2.05664,0.79102 0.42183,-1e-5 0.89644,-0.0762 1.42383,-0.22852 0.5273,-0.15235 1.02535,-0.29884 1.49414,-0.43945 l 0,5.87109 c -1.96879,0.93749 -3.73832,1.40624 -5.30859,1.40625 -1.31254,-1e-5 -2.44926,-0.1758 -3.41016,-0.52734 -0.96097,-0.35158 -1.76371,-0.83205 -2.4082,-1.44141 -0.64457,-0.60939 -1.12504,-1.31837 -1.44141,-2.12695 -0.31644,-0.80861 -0.47464,-1.66993 -0.47461,-2.58399 -3e-5,-1.35938 0.41013,-2.77735 1.23047,-4.2539 0.82028,-1.47657 1.92184,-2.77735 3.30469,-3.90235 z"
         style="font-size:72px;font-weight:bold;line-height:74.00000095%;fill:#ececec;-inkscape-font-specification:Sans Bold"
         id="path3092"
         inkscape:connector-curvature="0" />
      <path
         d="m 203.47266,91.262671 -2.56641,-26.15625 0,-12.09375 10.6875,0 0,12.09375 -2.53125,26.15625 z m -2.14454,13.289059 0,-9.878903 9.87891,0 0,9.878903 z"
         style="font-size:72px;font-weight:bold;line-height:74.00000095%;fill:#ececec;-inkscape-font-specification:Sans Bold"
         id="path3094"
         inkscape:connector-curvature="0" />
    </g>
    <path
       sodipodi:type="arc"
       style="fill:#ececec;fill-opacity:1;fill-rule:evenodd;stroke:none"
       id="path3060"
       sodipodi:cx="170.71577"
       sodipodi:cy="102.01775"
       sodipodi:rx="29.294424"
       sodipodi:ry="29.294424"
       d="m 200.0102,102.01775 a 29.294424,29.294424 0 1 1 -58.58885,0 29.294424,29.294424 0 1 1 58.58885,0 z"
       transform="matrix(0.70703133,0,0,0.70703133,174.14478,881.9655)" />
    <path
       transform="matrix(0.70703133,0,0,0.70703133,255.20756,881.9655)"
       d="m 200.0102,102.01775 a 29.294424,29.294424 0 1 1 -58.58885,0 29.294424,29.294424 0 1 1 58.58885,0 z"
       sodipodi:ry="29.294424"
       sodipodi:rx="29.294424"
       sodipodi:cy="102.01775"
       sodipodi:cx="170.71577"
       id="path3067"
       style="fill:#ececec;fill-opacity:1;fill-rule:evenodd;stroke:none"
       sodipodi:type="arc" />
    <rect
       style="fill:#ececec;fill-opacity:1;fill-rule:evenodd;stroke:none"
       id="rect3069"
       width="73.920685"
       height="16.069714"
       x="288.77542"
       y="945.88184"
       ry="8.0348568" />
    <path
       transform="matrix(0.61230709,0.35351567,-0.35351567,0.61230709,226.45418,831.01053)"
       d="m 200.0102,102.01775 a 29.294424,29.294424 0 1 1 -58.58885,0 29.294424,29.294424 0 1 1 58.58885,0 z"
       sodipodi:ry="29.294424"
       sodipodi:rx="29.294424"
       sodipodi:cy="102.01775"
       sodipodi:cx="170.71577"
       id="path3071"
       style="fill:#999999;fill-opacity:1;fill-rule:evenodd;stroke:none"
       sodipodi:type="arc" />
    <path
       sodipodi:type="arc"
       style="fill:#999999;fill-opacity:1;fill-rule:evenodd;stroke:none"
       id="path3073"
       sodipodi:cx="170.71577"
       sodipodi:cy="102.01775"
       sodipodi:rx="29.294424"
       sodipodi:ry="29.294424"
       d="m 200.0102,102.01775 a 29.294424,29.294424 0 1 1 -58.58885,0 29.294424,29.294424 0 1 1 58.58885,0 z"
       transform="matrix(0.61230709,0.35351567,-0.35351567,0.61230709,296.65661,871.54192)" />
    <rect
       ry="8.0348568"
       y="670.36548"
       x="726.25092"
       height="16.069714"
       width="73.920685"
       id="rect3075"
       style="fill:#999999;fill-opacity:1;fill-rule:evenodd;stroke:none"
       transform="matrix(0.8660254,0.5,-0.5,0.8660254,0,0)" />
  </g>
</svg>
